<?xml version="1.0" encoding="UTF-8" standalone="no"?>
<svg
   xmlns:dc="http://purl.org/dc/elements/1.1/"
   xmlns:cc="http://creativecommons.org/ns#"
   xmlns:rdf="http://www.w3.org/1999/02/22-rdf-syntax-ns#"
   xmlns:svg="http://www.w3.org/2000/svg"
   xmlns="http://www.w3.org/2000/svg"
   xmlns:sodipodi="http://sodipodi.sourceforge.net/DTD/sodipodi-0.dtd"
   xmlns:inkscape="http://www.inkscape.org/namespaces/inkscape"
   width="31.999998"
   height="31.999998"
   viewBox="0 0 8.466666 8.4666664"
   version="1.1"
   id="svg847"
   inkscape:version="1.0.2 (e86c870879, 2021-01-15)"
   sodipodi:docname="activities.svg">
  <defs
     id="defs841" />
  <sodipodi:namedview
     id="base"
     pagecolor="#ffffff"
     bordercolor="#666666"
     borderopacity="1.0"
     inkscape:pageopacity="0.0"
     inkscape:pageshadow="2"
     inkscape:zoom="15.839192"
     inkscape:cx="17.138124"
     inkscape:cy="15.092654"
     inkscape:document-units="px"
     inkscape:current-layer="layer1"
     inkscape:document-rotation="0"
     showgrid="false"
     units="px"
     inkscape:window-width="1920"
     inkscape:window-height="1007"
     inkscape:window-x="0"
     inkscape:window-y="0"
     inkscape:window-maximized="1"
     inkscape:snap-bbox="true"
     inkscape:bbox-nodes="true">
    <inkscape:grid
       type="xygrid"
       id="grid1410"
       originx="2e-07"
       originy="0" />
  </sodipodi:namedview>
  <metadata
     id="metadata844">
    <rdf:RDF>
      <cc:Work
         rdf:about="">
        <dc:format>image/svg+xml</dc:format>
        <dc:type
           rdf:resource="http://purl.org/dc/dcmitype/StillImage" />
        <dc:title />
      </cc:Work>
    </rdf:RDF>
    <style
       id="current-color-scheme" />
  </metadata>
  <g
     inkscape:label="Layer 1"
     inkscape:groupmode="layer"
     id="layer1">
    <g
       id="activities">
      <rect
         y="0"
         x="0"
         height="8.4666662"
         width="8.4666662"
         id="rect1430"
         style="opacity:0.003;fill:#000000;stroke-width:0.529167" />
      <path
         d="M 6.7734145,7.4083334 Z M 6.891337,1.1958306 C 6.882697,1.1249856 6.797127,1.0649196 6.705244,1.0652263 H 4.0999452 c -0.097442,7.3e-6 -0.186089,0.068659 -0.1860989,0.1441151 v 2.5220158 c 9.9e-6,0.075457 0.088649,0.144108 0.1860989,0.1441151 h 2.605299 c 0.097432,-7.4e-6 0.1860849,-0.068659 0.1860934,-0.1441151 z m 0,3.5308222 C 6.8827065,4.6558078 6.797129,4.5957417 6.7052438,4.5960483 h -2.605299 c -0.097442,7.2e-6 -0.186089,0.068659 -0.1860988,0.1441151 v 2.522016 c 9.8e-6,0.075456 0.088649,0.144108 0.1860988,0.1441151 h 2.605299 c 0.097432,-7.7e-6 0.1860849,-0.068659 0.1860934,-0.1441151 z M 6.5191503,1.3534566 V 3.5872421 H 4.2860327 V 1.3534566 Z m 0,3.5308222 V 7.118064 H 4.2860327 V 4.8842788 Z M 3.0764324,1.1958306 c -0.00446,-0.075459 -0.097387,-0.1408973 -0.1948172,-0.1373602 -0.097443,0.00354 -0.1819473,0.075412 -0.1773788,0.150871 v 3.9631679 c -0.00143,0.076125 0.087791,0.146128 0.1860984,0.146128 0.098305,0 0.187457,-0.070003 0.1860976,-0.146128 z m -1.1165702,0 C 1.9553422,1.1203716 1.8624792,1.0549333 1.7650547,1.0584704 1.6676097,1.0620104 1.583108,1.1338824 1.5876771,1.2093414 v 6.052838 c -0.00143,0.076125 0.087791,0.1461281 0.1860972,0.1461281 0.09831,0 0.1874473,-0.070003 0.1860879,-0.1461281 z"
         id="path2-3"
         style="fill:#eff0f1;fill-opacity:1;fill-rule:nonzero;stroke-width:0.0819411"
         sodipodi:nodetypes="cccccccccccccccccccccccccccccccccccccccccccccc" />
    </g>
    <g
       id="22-22-activities">
      <rect
         style="opacity:0.003;fill:#000000;stroke-width:0.363802"
         id="rect1430-3-7-5"
         width="5.8208323"
         height="5.8208323"
         x="8.4666681"
         y="2.6458333" />
      <path
         d="m 13.074865,7.6729186 z m 0.07864,-4.1416681 c -0.0064,-0.047236 -0.06281,-0.087275 -0.124071,-0.087074 h -1.736863 c -0.06494,4.3e-6 -0.12405,0.045779 -0.124055,0.096076 v 1.6813438 c 5e-6,0.050312 0.05905,0.096073 0.124055,0.096076 h 1.736864 c 0.06489,-4.1e-6 0.124063,-0.045779 0.124071,-0.096076 z m 0,2.3538805 C 13.147105,5.837895 13.090695,5.79786 13.029434,5.798057 h -1.736863 c -0.06494,5.7e-6 -0.12405,0.045779 -0.124056,0.096078 v 1.6813444 c 6e-6,0.050306 0.05905,0.096072 0.124056,0.096077 h 1.736863 c 0.0649,-5.3e-6 0.124064,-0.045774 0.124072,-0.096077 z M 12.905371,3.6363334 V 5.1255249 H 11.416623 V 3.6363334 Z m 0,2.3538826 V 7.4794052 H 11.416619 V 5.990216 Z m -2.29515,-2.4589655 c -0.0035,-0.050314 -0.06487,-0.093932 -0.12987,-0.091576 -0.06493,0.0024 -0.1213,0.050275 -0.118254,0.1005808 v 2.6421119 c -9.75e-4,0.050756 0.0585,0.097418 0.124068,0.097418 0.06552,0 0.124961,-0.046665 0.124056,-0.097418 z m -0.7443737,0 c -0.00295,-0.050314 -0.064918,-0.093932 -0.1298717,-0.091576 -0.064965,0.0024 -0.1212985,0.050275 -0.1182519,0.1005808 v 4.0352254 c -9.082e-4,0.050755 0.058523,0.097418 0.1240652,0.097418 0.065534,0 0.124964,-0.046668 0.1240584,-0.097418 z"
         id="path2-3-6"
         style="fill:#eff0f1;fill-opacity:1;stroke-width:0.0546281"
         sodipodi:nodetypes="cccccccccccccccccccccccccccccccccccccccccccccc" />
    </g>
  </g>
</svg>
