<?xml version="1.0" encoding="UTF-8" standalone="no"?>
<svg
   width="32"
   height="32"
   version="1.1"
   id="svg58"
   sodipodi:docname="disk.svg"
   inkscape:version="1.1.1 (3bf5ae0d25, 2021-09-20)"
   xmlns:inkscape="http://www.inkscape.org/namespaces/inkscape"
   xmlns:sodipodi="http://sodipodi.sourceforge.net/DTD/sodipodi-0.dtd"
   xmlns="http://www.w3.org/2000/svg"
   xmlns:svg="http://www.w3.org/2000/svg"
   xmlns:rdf="http://www.w3.org/1999/02/22-rdf-syntax-ns#"
   xmlns:cc="http://creativecommons.org/ns#"
   xmlns:dc="http://purl.org/dc/elements/1.1/">
  <metadata
     id="metadata64">
    <rdf:RDF>
      <cc:Work
         rdf:about="">
        <dc:format>image/svg+xml</dc:format>
        <dc:type
           rdf:resource="http://purl.org/dc/dcmitype/StillImage" />
      </cc:Work>
    </rdf:RDF>
  </metadata>
  <defs
     id="defs62" />
  <sodipodi:namedview
     pagecolor="#ffffff"
     bordercolor="#000000"
     borderopacity="1"
     objecttolerance="10"
     gridtolerance="10"
     guidetolerance="10"
     inkscape:pageopacity="0"
     inkscape:pageshadow="2"
     inkscape:window-width="1920"
     inkscape:window-height="1007"
     id="namedview60"
     showgrid="false"
     inkscape:zoom="4"
     inkscape:cx="95.875"
     inkscape:cy="2.5"
     inkscape:window-x="0"
     inkscape:window-y="0"
     inkscape:window-maximized="1"
     inkscape:current-layer="svg58"
     showguides="false"
     inkscape:document-rotation="0"
     inkscape:lockguides="true"
     inkscape:pagecheckerboard="0"
     inkscape:showpageshadow="false">
    <inkscape:grid
       type="xygrid"
       id="grid927"
       originx="0"
       originy="0" />
  </sodipodi:namedview>
  <g
     id="disk-quota">
    <rect
       style="opacity:0.00100002"
       width="32"
       height="32"
       x="0"
       y="0"
       id="rect35" />
    <rect
       ry="0"
       y="22.400501"
       x="20.093704"
       height="1.8664992"
       width="1.6664993"
       id="rect960-5"
       style="fill:#eff0f1;fill-opacity:1;stroke:none;stroke-width:3.52733;stroke-linecap:round;stroke-linejoin:round;stroke-miterlimit:4;stroke-dasharray:none;stroke-opacity:1" />
    <rect
       style="fill:#eff0f1;fill-opacity:1;stroke:none;stroke-width:3.52733;stroke-linecap:round;stroke-linejoin:round;stroke-miterlimit:4;stroke-dasharray:none;stroke-opacity:1"
       id="rect962-3"
       width="1.6664993"
       height="1.8664992"
       x="10.328217"
       y="22.400002"
       ry="0" />
    <rect
       ry="0"
       y="22.400002"
       x="15.162003"
       height="1.8664992"
       width="1.6664993"
       id="rect964-5"
       style="fill:#eff0f1;fill-opacity:1;stroke:none;stroke-width:3.52733;stroke-linecap:round;stroke-linejoin:round;stroke-miterlimit:4;stroke-dasharray:none;stroke-opacity:1" />
    <path
       d="M 23.08606,4 H 9.005253 C 8.012374,4 7.2,4.9 7.2,5.999999 V 25.999998 C 7.2,27.1 8.012374,28 9.005253,28 H 23.08606 c 0.992879,0 1.805229,-0.9 1.805229,-2.000002 V 5.999999 C 24.891289,4.9 24.078939,4 23.08606,4 Z m 0.902623,21.999998 c 0,0.549994 -0.406203,0.999994 -0.902623,0.999994 H 9.005253 c -0.496462,0 -0.902624,-0.45 -0.902624,-0.999994 V 5.999999 C 8.102629,5.45 8.508791,5 9.005253,5 H 23.08606 c 0.49642,0 0.902623,0.45 0.902623,0.999999 z"
       id="path2"
       style="fill:#eff0f1;fill-opacity:1;stroke-width:0.475029" />
    <path
       d="m 16,7.6 v 2 c 2.5,0 4.5,2 4.5,4.5 h 2 C 22.5,10.5 19.6,7.6 16,7.6 Z"
       id="path4"
       style="fill:#eff0f1;fill-opacity:1" />
    <path
       d="m 16,11.2 c -1.7,0 -3,1.3 -3,3 0,1.7 1.3,3 3,3 1.7,0 3,-1.3 3,-3 0,-1.7 -1.3,-3 -3,-3 z m 0,4 c -0.6,0 -1,-0.4 -1,-1 0,-0.6 0.4,-1 1,-1 0.6,0 1,0.4 1,1 0,0.6 -0.4,1 -1,1 z"
       id="path6"
       style="fill:#eff0f1;fill-opacity:1" />
  </g>
  <g
     id="22-22-disk-quota"
     transform="translate(96,-22)">
    <rect
       style="opacity:0.00100002"
       width="22"
       height="22"
       x="-96"
       y="0"
       id="rect12" />
    <rect
       ry="0"
       y="15.267001"
       x="-82.304161"
       height="1.2443316"
       width="1.1110007"
       id="rect960-5-36"
       style="fill:#eff0f1;fill-opacity:1;stroke:none;stroke-width:2.35153;stroke-linecap:round;stroke-linejoin:round;stroke-miterlimit:4;stroke-dasharray:none;stroke-opacity:1" />
    <rect
       style="fill:#eff0f1;fill-opacity:1;stroke:none;stroke-width:2.35153;stroke-linecap:round;stroke-linejoin:round;stroke-miterlimit:4;stroke-dasharray:none;stroke-opacity:1"
       id="rect962-3-7"
       width="1.1110007"
       height="1.2443316"
       x="-88.81456"
       y="15.266659"
       ry="0" />
    <rect
       ry="0"
       y="15.266659"
       x="-85.592033"
       height="1.2443316"
       width="1.1110007"
       id="rect964-5-53"
       style="fill:#eff0f1;fill-opacity:1;stroke:none;stroke-width:2.35153;stroke-linecap:round;stroke-linejoin:round;stroke-miterlimit:4;stroke-dasharray:none;stroke-opacity:1" />
    <path
       d="m -80.3093,3 h -9.387207 C -90.358426,3 -90.9,3.6 -90.9,4.333339 v 13.33332 C -90.9,18.4 -90.358426,19 -89.696507,19 h 9.387207 c 0.661919,0 1.203489,-0.6 1.203489,-1.333341 V 4.333339 C -79.105811,3.6 -79.647381,3 -80.3093,3 Z m 0.601745,14.666659 c 0,0.366672 -0.270785,0.666671 -0.601745,0.666671 h -9.387207 c -0.330962,0 -0.601744,-0.299999 -0.601744,-0.666671 V 4.333339 c 0,-0.366679 0.270782,-0.666679 0.601744,-0.666679 h 9.387207 c 0.33096,0 0.601745,0.3 0.601745,0.666679 z"
       id="path2-5"
       style="fill:#eff0f1;fill-opacity:1;stroke-width:0.316689" />
    <path
       d="m -85.03334,5.4 v 1.33334 c 1.66668,0 3,1.33332 3,3 H -80.7 C -80.7,7.33334 -82.63334,5.4 -85.03334,5.4 Z"
       id="path4-62"
       style="fill:#eff0f1;fill-opacity:1;stroke-width:0.66666" />
    <path
       d="m -85.03334,7.8 c -1.13332,0 -2,0.86666 -2,2 0,1.13334 0.86668,2 2,2 1.13334,0 2,-0.86666 2,-2 0,-1.13334 -0.86666,-2 -2,-2 z m 0,2.66666 C -85.43334,10.46666 -85.7,10.2 -85.7,9.8 c 0,-0.4 0.26666,-0.66666 0.66666,-0.66666 0.4,0 0.66668,0.26666 0.66668,0.66666 0,0.4 -0.26668,0.66666 -0.66668,0.66666 z"
       id="path6-9"
       style="fill:#eff0f1;fill-opacity:1;stroke-width:0.66666" />
  </g>
  <g
     id="disk-quota-low">
    <rect
       style="opacity:0.00100002"
       width="32"
       height="32"
       x="32"
       y="0"
       id="rect40" />
    <rect
       ry="0"
       y="22.400501"
       x="52.093704"
       height="1.8664992"
       width="1.6664993"
       id="rect960-5-9"
       style="fill:#eff0f1;fill-opacity:1;stroke:none;stroke-width:3.52733;stroke-linecap:round;stroke-linejoin:round;stroke-miterlimit:4;stroke-dasharray:none;stroke-opacity:1" />
    <rect
       style="fill:#eff0f1;fill-opacity:1;stroke:none;stroke-width:3.52733;stroke-linecap:round;stroke-linejoin:round;stroke-miterlimit:4;stroke-dasharray:none;stroke-opacity:1"
       id="rect962-3-3"
       width="1.6664993"
       height="1.8664992"
       x="42.328217"
       y="22.400002"
       ry="0" />
    <rect
       ry="0"
       y="22.400002"
       x="47.161999"
       height="1.8664992"
       width="1.6664993"
       id="rect964-5-19"
       style="fill:#eff0f1;fill-opacity:1;stroke:none;stroke-width:3.52733;stroke-linecap:round;stroke-linejoin:round;stroke-miterlimit:4;stroke-dasharray:none;stroke-opacity:1" />
    <path
       d="M 55.08606,4 H 41.005255 C 40.012376,4 39.2,4.9 39.2,5.999999 V 25.999995 C 39.2,27.1 40.012376,28 41.005255,28 H 55.08606 c 0.992879,0 1.805226,-0.9 1.805226,-2.000005 V 5.999999 C 56.891286,4.9 56.078939,4 55.08606,4 Z m 0.902623,21.999995 c 0,0.55 -0.4062,1 -0.902623,1 H 41.005255 c -0.496466,0 -0.902626,-0.45 -0.902626,-1 V 5.999999 C 40.102629,5.45 40.508789,5 41.005255,5 H 55.08606 c 0.496423,0 0.902623,0.45 0.902623,0.999999 z"
       id="path2-7"
       style="fill:#eff0f1;fill-opacity:1;stroke-width:0.475032" />
    <path
       d="m 48,7.6 v 2 c 2.5,0 4.5,2 4.5,4.5 h 2 C 54.5,10.5 51.6,7.6 48,7.6 Z"
       id="path4-6"
       style="fill:#ff9955;fill-opacity:1" />
    <path
       d="m 48,11.2 c -1.7,0 -3,1.3 -3,3 0,1.7 1.3,3 3,3 1.7,0 3,-1.3 3,-3 0,-1.7 -1.3,-3 -3,-3 z m 0,4 c -0.6,0 -1,-0.4 -1,-1 0,-0.6 0.4,-1 1,-1 0.6,0 1,0.4 1,1 0,0.6 -0.4,1 -1,1 z"
       id="path6-7"
       style="fill:#ff9955;fill-opacity:1" />
    <path
       d="m 54.5,14.1 h -2 c 0,2.5 -2,4.5 -4.5,4.5 v 2 c 3.6,0 6.5,-2.9 6.5,-6.5 z"
       id="path4-6-36"
       style="fill:#ff9955;fill-opacity:1" />
  </g>
  <g
     id="disk-quota-high">
    <rect
       style="opacity:0.00100002"
       width="32"
       height="32"
       x="64"
       y="0"
       id="rect49" />
    <rect
       ry="0"
       y="22.400497"
       x="84.093719"
       height="1.8664992"
       width="1.6664993"
       id="rect960-5-8"
       style="fill:#eff0f1;fill-opacity:1;stroke:none;stroke-width:3.52733;stroke-linecap:round;stroke-linejoin:round;stroke-miterlimit:4;stroke-dasharray:none;stroke-opacity:1" />
    <rect
       style="fill:#eff0f1;fill-opacity:1;stroke:none;stroke-width:3.52733;stroke-linecap:round;stroke-linejoin:round;stroke-miterlimit:4;stroke-dasharray:none;stroke-opacity:1"
       id="rect962-3-4"
       width="1.6664993"
       height="1.8664992"
       x="74.328224"
       y="22.400002"
       ry="0" />
    <rect
       ry="0"
       y="22.400002"
       x="79.162003"
       height="1.8664992"
       width="1.6664993"
       id="rect964-5-5"
       style="fill:#eff0f1;fill-opacity:1;stroke:none;stroke-width:3.52733;stroke-linecap:round;stroke-linejoin:round;stroke-miterlimit:4;stroke-dasharray:none;stroke-opacity:1" />
    <path
       d="M 87.08606,4 H 73.005255 C 72.012376,4 71.2,4.9 71.2,6 V 25.999994 C 71.2,27.1 72.012376,28 73.005255,28 H 87.08606 c 0.992879,0 1.805225,-0.9 1.805225,-2.000006 V 6 c 0,-1.1 -0.812346,-2 -1.805225,-2 z m 0.902623,21.999994 c 0,0.550002 -0.406199,1.000002 -0.902623,1.000002 H 73.005255 c -0.496465,0 -0.902626,-0.45 -0.902626,-1.000002 V 6 c 0,-0.550001 0.406161,-1 0.902626,-1 H 87.08606 c 0.496424,0 0.902623,0.449999 0.902623,1 z"
       id="path2-3"
       style="fill:#eff0f1;fill-opacity:1;stroke-width:0.475033" />
    <path
       d="m 80,7.6 v 2 c 2.5,0 4.5,2 4.5,4.5 h 2 C 86.5,10.5 83.6,7.6 80,7.6 Z"
       id="path4-6-3"
       style="fill:#ff557f;fill-opacity:1" />
    <path
       d="m 80,11.2 c -1.7,0 -3,1.299999 -3,3 0,1.7 1.3,3 3,3 1.7,0 3,-1.3 3,-3 0,-1.700001 -1.3,-3 -3,-3 z m 0,4 c -0.6,0 -1,-0.4 -1,-1 0,-0.6 0.4,-1 1,-1 0.6,0 1,0.4 1,1 0,0.6 -0.4,1 -1,1 z"
       id="path6-7-5"
       style="fill:#ff557f;fill-opacity:1" />
    <path
       d="m 86.5,14.1 h -2 c 0,2.5 -2,4.5 -4.5,4.5 v 2 c 3.6,0 6.5,-2.9 6.5,-6.5 z"
       id="path4-6-3-7"
       style="fill:#ff557f;fill-opacity:1" />
    <path
       d="m 80,20.6 v -2 c -2.5,0 -4.5,-2 -4.5,-4.5 h -2 c 0,3.6 2.9,6.5 6.5,6.5 z"
       id="path4-6-3-7-5"
       style="fill:#ff557f;fill-opacity:1" />
  </g>
  <g
     id="22-22-disk-quota-low">
    <rect
       style="opacity:0.00100002"
       width="22"
       height="22"
       x="32"
       y="-22"
       id="rect17" />
    <rect
       ry="0"
       y="-6.7330017"
       x="45.695827"
       height="1.2443317"
       width="1.1110002"
       id="rect960-5-9-3"
       style="fill:#eff0f1;fill-opacity:1;stroke:none;stroke-width:2.35156;stroke-linecap:round;stroke-linejoin:round;stroke-miterlimit:4;stroke-dasharray:none;stroke-opacity:1" />
    <rect
       style="fill:#eff0f1;fill-opacity:1;stroke:none;stroke-width:2.35156;stroke-linecap:round;stroke-linejoin:round;stroke-miterlimit:4;stroke-dasharray:none;stroke-opacity:1"
       id="rect962-3-3-6"
       width="1.1110002"
       height="1.2443317"
       x="39.185474"
       y="-6.7333336"
       ry="0" />
    <rect
       ry="0"
       y="-6.7333336"
       x="42.407978"
       height="1.2443317"
       width="1.1110002"
       id="rect964-5-19-7"
       style="fill:#eff0f1;fill-opacity:1;stroke:none;stroke-width:2.35156;stroke-linecap:round;stroke-linejoin:round;stroke-miterlimit:4;stroke-dasharray:none;stroke-opacity:1" />
    <path
       d="M 47.6907,-19 H 38.303495 C 37.641576,-19 37.1,-18.4 37.1,-17.666664 V -4.333342 C 37.1,-3.6 37.641576,-3 38.303495,-3 H 47.6907 c 0.661919,0 1.203489,-0.6 1.203489,-1.333342 V -17.666664 C 48.894189,-18.4 48.352619,-19 47.6907,-19 Z m 0.601748,14.666658 c 0,0.366674 -0.270788,0.666674 -0.601748,0.666674 h -9.387205 c -0.330969,0 -0.601746,-0.3 -0.601746,-0.666674 v -13.333322 c 0,-0.366673 0.270777,-0.666673 0.601746,-0.666673 H 47.6907 c 0.33096,0 0.601748,0.3 0.601748,0.666673 z"
       id="path2-7-5"
       style="fill:#eff0f1;fill-opacity:1;stroke-width:0.316689" />
    <path
       d="m 42.966663,-16.6 v 1.333337 c 1.666674,0 3,1.333326 3,3 H 47.3 c 0,-2.4 -1.933337,-4.333337 -4.333337,-4.333337 z"
       id="path4-6-35"
       style="fill:#ff9955;fill-opacity:1;stroke-width:0.666663" />
    <path
       d="m 42.966663,-14.2 c -1.133326,0 -2,0.866663 -2,2 0,1.133337 0.866674,2 2,2 1.133337,0 2,-0.866663 2,-2 0,-1.133337 -0.866663,-2 -2,-2 z m 0,2.666663 C 42.566663,-11.533337 42.3,-11.8 42.3,-12.2 c 0,-0.4 0.266663,-0.666663 0.666663,-0.666663 0.4,0 0.666674,0.266663 0.666674,0.666663 0,0.4 -0.266674,0.666663 -0.666674,0.666663 z"
       id="path6-7-6"
       style="fill:#ff9955;fill-opacity:1;stroke-width:0.666663" />
    <path
       d="m 47.3,-12.266663 h -1.333337 c 0,1.666663 -1.333326,3 -3,3 v 1.333326 c 2.4,0 4.333337,-1.933326 4.333337,-4.333326 z"
       id="path4-6-36-2"
       style="fill:#ff9955;fill-opacity:1;stroke-width:0.666663" />
  </g>
  <g
     id="disk-quota-critical">
    <rect
       style="opacity:0.00100002"
       width="32"
       height="32"
       x="96"
       y="0"
       id="rect2" />
    <rect
       ry="0"
       y="22.40049"
       x="116.09372"
       height="1.8664992"
       width="1.6664993"
       id="rect960-5-8-6"
       style="fill:#eff0f1;fill-opacity:1;stroke:none;stroke-width:3.52733;stroke-linecap:round;stroke-linejoin:round;stroke-miterlimit:4;stroke-dasharray:none;stroke-opacity:1" />
    <rect
       style="fill:#eff0f1;fill-opacity:1;stroke:none;stroke-width:3.52733;stroke-linecap:round;stroke-linejoin:round;stroke-miterlimit:4;stroke-dasharray:none;stroke-opacity:1"
       id="rect962-3-4-1"
       width="1.6664993"
       height="1.8664992"
       x="106.32823"
       y="22.399994"
       ry="0" />
    <rect
       ry="0"
       y="22.399994"
       x="111.162"
       height="1.8664992"
       width="1.6664993"
       id="rect964-5-5-0"
       style="fill:#eff0f1;fill-opacity:1;stroke:none;stroke-width:3.52733;stroke-linecap:round;stroke-linejoin:round;stroke-miterlimit:4;stroke-dasharray:none;stroke-opacity:1" />
    <path
       d="m 119.08602,4 h -14.0808 C 104.01232,4 103.2,4.9 103.2,5.999999 V 25.999995 C 103.2,27.1 104.01232,28 105.00522,28 h 14.0808 c 0.99294,0 1.80523,-0.9 1.80523,-2.000005 V 5.999999 C 120.89125,4.9 120.07896,4 119.08602,4 Z m 0.90264,21.999995 c 0,0.55 -0.40618,1 -0.90264,1 h -14.0808 c -0.49645,0 -0.90261,-0.45 -0.90261,-1 V 5.999999 C 104.10261,5.45 104.50877,5 105.00522,5 h 14.0808 c 0.49646,0 0.90264,0.45 0.90264,0.999999 z"
       id="path2-3-6"
       style="fill:#eff0f1;fill-opacity:1;stroke-width:0.475032" />
    <path
       d="m 112,7.6 v 2 c 2.5,0 4.5,2 4.5,4.5 h 2 c 0,-3.6 -2.9,-6.5 -6.5,-6.5 z"
       id="path4-6-3-1"
       style="fill:#cc0032;fill-opacity:1" />
    <path
       d="m 118.5,14.1 h -2 c 0,2.5 -2,4.5 -4.5,4.5 v 2 c 3.6,0 6.5,-2.9 6.5,-6.5 z"
       id="path4-6-3-1-3"
       style="fill:#cc0032;fill-opacity:1" />
    <path
       d="m 112,20.6 v -2 c -2.5,0 -4.5,-2 -4.5,-4.5 h -2 c 0,3.6 2.9,6.5 6.5,6.5 z"
       id="path4-6-3-1-3-5"
       style="fill:#cc0032;fill-opacity:1" />
    <path
       d="m 105.5,14.1 h 2 c 0,-2.5 2,-4.5 4.5,-4.5 v -2 c -3.6,0 -6.5,2.9 -6.5,6.5 z"
       id="path4-6-3-1-3-5-6"
       style="fill:#cc0032;fill-opacity:1" />
    <path
       sodipodi:nodetypes="ccccc"
       class="ColorScheme-NegativeText"
       d="m 111.45,10.820595 h 1.05 v 4.290514 h -1.05 z"
       id="path1123-2"
       inkscape:connector-curvature="0"
       style="color:#da4453;fill:#cc0032;fill-opacity:1;stroke-width:0.750416" />
    <path
       class="ColorScheme-NegativeText"
       d="m 111.45,16.009291 h 1 v 1.4 h -1 z"
       id="path1121-91"
       inkscape:connector-curvature="0"
       style="color:#da4453;fill:#cc0032;fill-opacity:1;stroke-width:0.591605" />
  </g>
  <g
     id="22-22-disk-quota-high">
    <rect
       style="opacity:0.00100002"
       width="22"
       height="22"
       x="64"
       y="-22"
       id="rect26" />
    <rect
       ry="0"
       y="-6.7330017"
       x="77.695808"
       height="1.2443327"
       width="1.1109997"
       id="rect960-5-8-9"
       style="fill:#eff0f1;fill-opacity:1;stroke:none;stroke-width:2.35154;stroke-linecap:round;stroke-linejoin:round;stroke-miterlimit:4;stroke-dasharray:none;stroke-opacity:1" />
    <rect
       style="fill:#eff0f1;fill-opacity:1;stroke:none;stroke-width:2.35154;stroke-linecap:round;stroke-linejoin:round;stroke-miterlimit:4;stroke-dasharray:none;stroke-opacity:1"
       id="rect962-3-4-12"
       width="1.1109997"
       height="1.2443327"
       x="71.185516"
       y="-6.7333412"
       ry="0" />
    <rect
       ry="0"
       y="-6.7333412"
       x="74.408012"
       height="1.2443327"
       width="1.1109997"
       id="rect964-5-5-7"
       style="fill:#eff0f1;fill-opacity:1;stroke:none;stroke-width:2.35154;stroke-linecap:round;stroke-linejoin:round;stroke-miterlimit:4;stroke-dasharray:none;stroke-opacity:1" />
    <path
       d="M 79.690703,-19 H 70.303501 C 69.641581,-19 69.1,-18.4 69.1,-17.666664 V -4.333341 C 69.1,-3.6 69.641581,-3 70.303501,-3 h 9.387202 c 0.661919,0 1.203486,-0.6 1.203486,-1.333341 V -17.666664 C 80.894189,-18.4 80.352622,-19 79.690703,-19 Z m 0.601752,14.666659 c 0,0.366673 -0.270795,0.666673 -0.601752,0.666673 h -9.387202 c -0.330972,0 -0.601752,-0.3 -0.601752,-0.666673 v -13.333323 c 0,-0.366673 0.27078,-0.666672 0.601752,-0.666672 h 9.387202 c 0.330957,0 0.601752,0.299999 0.601752,0.666672 z"
       id="path2-3-0"
       style="fill:#eff0f1;fill-opacity:1;stroke-width:0.316689" />
    <path
       d="m 74.966663,-16.6 v 1.333336 c 1.666672,0 3,1.333328 3,3 h 1.333336 c 0,-2.4 -1.933336,-4.333336 -4.333336,-4.333336 z"
       id="path4-6-3-9"
       style="fill:#ff557f;fill-opacity:1;stroke-width:0.666664" />
    <path
       d="m 74.966663,-14.2 c -1.133328,0 -2,0.866663 -2,2 0,1.133336 0.866672,2 2,2 1.133337,0 2,-0.866664 2,-2 0,-1.133337 -0.866663,-2 -2,-2 z m 0,2.666664 c -0.399999,0 -0.666664,-0.266664 -0.666664,-0.666664 0,-0.4 0.266665,-0.666664 0.666664,-0.666664 0.4,0 0.666672,0.266664 0.666672,0.666664 0,0.4 -0.266672,0.666664 -0.666672,0.666664 z"
       id="path6-7-5-3"
       style="fill:#ff557f;fill-opacity:1;stroke-width:0.666664" />
    <path
       d="m 79.299999,-12.266664 h -1.333336 c 0,1.666664 -1.333328,3 -3,3 v 1.333328 c 2.4,0 4.333336,-1.933328 4.333336,-4.333328 z"
       id="path4-6-3-7-6"
       style="fill:#ff557f;fill-opacity:1;stroke-width:0.666664" />
    <path
       d="m 74.966663,-7.933336 v -1.333328 c -1.666664,0 -3,-1.333336 -3,-3 h -1.333328 c 0,2.4 1.933329,4.333328 4.333328,4.333328 z"
       id="path4-6-3-7-5-0"
       style="fill:#ff557f;fill-opacity:1;stroke-width:0.666664" />
  </g>
  <g
     id="22-22-disk-quota-critical">
    <rect
       style="opacity:0.00100002"
       width="22"
       height="22"
       x="96"
       y="-22"
       id="rect7" />
    <rect
       ry="0"
       y="-6.7330017"
       x="109.69578"
       height="1.2443324"
       width="1.1109998"
       id="rect960-5-8-6-6"
       style="fill:#eff0f1;fill-opacity:1;stroke:none;stroke-width:2.35155;stroke-linecap:round;stroke-linejoin:round;stroke-miterlimit:4;stroke-dasharray:none;stroke-opacity:1" />
    <rect
       style="fill:#eff0f1;fill-opacity:1;stroke:none;stroke-width:2.35155;stroke-linecap:round;stroke-linejoin:round;stroke-miterlimit:4;stroke-dasharray:none;stroke-opacity:1"
       id="rect962-3-4-1-26"
       width="1.1109998"
       height="1.2443324"
       x="103.18554"
       y="-6.7333422"
       ry="0" />
    <rect
       ry="0"
       y="-6.7333422"
       x="106.40804"
       height="1.2443324"
       width="1.1109998"
       id="rect964-5-5-0-1"
       style="fill:#eff0f1;fill-opacity:1;stroke:none;stroke-width:2.35155;stroke-linecap:round;stroke-linejoin:round;stroke-miterlimit:4;stroke-dasharray:none;stroke-opacity:1" />
    <path
       d="m 111.69069,-19 h -9.3872 c -0.66188,0 -1.20349,0.6 -1.20349,1.333336 V -4.333342 C 101.1,-3.6 101.64161,-3 102.30348,-3 h 9.3872 c 0.66191,0 1.20353,-0.6 1.20353,-1.333342 V -17.666664 C 112.89421,-18.4 112.35259,-19 111.69069,-19 Z m 0.60175,14.666658 c 0,0.366674 -0.27076,0.666674 -0.60175,0.666674 h -9.3872 c -0.33095,0 -0.60169,-0.3 -0.60169,-0.666674 v -13.333322 c -1e-5,-0.366673 0.27073,-0.666673 0.60168,-0.666673 h 9.3872 c 0.33099,0 0.60175,0.3 0.60175,0.666673 z"
       id="path2-3-6-8"
       style="fill:#eff0f1;fill-opacity:1;stroke-width:0.316689" />
    <path
       d="m 106.96663,-16.6 v 1.333337 c 1.66674,0 3,1.333326 3,3 H 111.3 c 0,-2.4 -1.93338,-4.333337 -4.33337,-4.333337 z"
       id="path4-6-3-1-79"
       style="fill:#cc0032;fill-opacity:1;stroke-width:0.666663" />
    <path
       d="m 111.3,-12.266663 h -1.33337 c 0,1.666663 -1.33326,3 -3,3 v 1.333326 c 2.39999,0 4.33337,-1.933326 4.33337,-4.333326 z"
       id="path4-6-3-1-3-2"
       style="fill:#cc0032;fill-opacity:1;stroke-width:0.666663" />
    <path
       d="m 106.96663,-7.933337 v -1.333326 c -1.66663,0 -3,-1.333337 -3,-3 h -1.33326 c 0,2.4 1.93326,4.333326 4.33326,4.333326 z"
       id="path4-6-3-1-3-5-0"
       style="fill:#cc0032;fill-opacity:1;stroke-width:0.666663" />
    <path
       d="m 102.63337,-12.266663 h 1.33326 c 0,-1.666674 1.33337,-3 3,-3 V -16.6 c -2.4,0 -4.33326,1.933337 -4.33326,4.333337 z"
       id="path4-6-3-1-3-5-6-2"
       style="fill:#cc0032;fill-opacity:1;stroke-width:0.666663" />
    <path
       sodipodi:nodetypes="ccccc"
       class="ColorScheme-NegativeText"
       d="m 106.633,-14.4 h 0.70004 v 2.907407 H 106.633 Z"
       id="path1123-2-3"
       inkscape:connector-curvature="0"
       style="color:#da4453;fill:#cc0032;fill-opacity:1;stroke-width:0.504379" />
    <path
       class="ColorScheme-NegativeText"
       d="m 106.633,-10.993807 h 0.66669 v 0.933338 H 106.633 Z"
       id="path1121-91-7"
       inkscape:connector-curvature="0"
       style="color:#da4453;fill:#cc0032;fill-opacity:1;stroke-width:0.394405" />
  </g>
</svg>
