<?xml version="1.0" encoding="UTF-8" standalone="no"?>
<svg
   xmlns:dc="http://purl.org/dc/elements/1.1/"
   xmlns:cc="http://creativecommons.org/ns#"
   xmlns:rdf="http://www.w3.org/1999/02/22-rdf-syntax-ns#"
   xmlns:svg="http://www.w3.org/2000/svg"
   xmlns="http://www.w3.org/2000/svg"
   xmlns:sodipodi="http://sodipodi.sourceforge.net/DTD/sodipodi-0.dtd"
   xmlns:inkscape="http://www.inkscape.org/namespaces/inkscape"
   width="32"
   height="32"
   version="1.1"
   id="svg12"
   sodipodi:docname="kteatime.svg"
   inkscape:version="1.0.2 (e86c870879, 2021-01-15)">
  <metadata
     id="metadata18">
    <rdf:RDF>
      <cc:Work
         rdf:about="">
        <dc:format>image/svg+xml</dc:format>
        <dc:type
           rdf:resource="http://purl.org/dc/dcmitype/StillImage" />
      </cc:Work>
    </rdf:RDF>
  </metadata>
  <defs
     id="defs16" />
  <sodipodi:namedview
     pagecolor="#ffffff"
     bordercolor="#666666"
     borderopacity="1"
     objecttolerance="10"
     gridtolerance="10"
     guidetolerance="10"
     inkscape:pageopacity="0"
     inkscape:pageshadow="2"
     inkscape:window-width="1920"
     inkscape:window-height="1007"
     id="namedview14"
     showgrid="false"
     inkscape:zoom="6.9384853"
     inkscape:cx="28.686935"
     inkscape:cy="12.975999"
     inkscape:window-x="0"
     inkscape:window-y="0"
     inkscape:window-maximized="1"
     inkscape:current-layer="svg12"
     inkscape:document-rotation="0"
     inkscape:lockguides="false">
    <inkscape:grid
       type="xygrid"
       id="grid857"
       originx="0"
       originy="0" />
  </sodipodi:namedview>
  <g
     id="kteatime">
    <rect
       style="opacity:0.00100002"
       width="32"
       height="32"
       x="0"
       y="0"
       id="rect7" />
    <path
       d="m 25.151261,20.537815 c 0,2.379832 -2.621849,4.517647 -4.840337,4.961345 v -1.653782 c 1.250421,-0.403361 3.226891,-1.694117 3.226891,-3.307563 0,-3.002218 -2.247933,-3.714958 -3.226891,-3.388235 v -1.613446 c 3.031261,0 4.840337,2.007933 4.840337,5.001681 z M 9.057143,11.502521 C 9.702521,10.857143 11.477311,9.485714 10.146218,8.114286 9.258824,7.226891 9.823529,6.29916 10.226888,5.169748 9.58151,5.815126 7.80672,7.186555 9.137812,8.557983 c 0.847059,0.847059 0.322689,1.77479 -0.080669,2.944538 z m 3.912605,0 C 13.776471,10.695798 15.87395,9.122689 14.260504,7.509244 13.252101,6.460504 13.857143,5.371429 14.341174,4 c -0.806722,0.806723 -2.904201,2.379832 -1.290756,3.993277 1.008404,1.04874 0.403362,2.137815 -0.08067,3.509244 z m 4.114286,0 c 0.645378,-0.645378 2.460504,-2.016807 1.089075,-3.388235 -0.887395,-0.887395 -0.322689,-1.815126 0.08067,-2.944538 -0.645782,0.645378 -2.460908,2.016807 -1.089076,3.388235 0.887395,0.847059 0.322689,1.77479 -0.08067,2.944538 z m -8.067227,9.842017 h 3.22689 v -3.630252 h -3.22689 z m 10.890756,-7.865546 h -9.07563 v 2.742857 l 1.613445,0.968067 c 0.121009,0.08067 0.201681,0.201681 0.201681,0.363025 v 4.194958 c 0,0.242017 -0.201681,0.403362 -0.403362,0.403362 h -3.22689 c -0.201681,0 -0.403362,-0.161345 -0.403362,-0.403362 v -4.194958 c 0,-0.161344 0.08067,-0.282353 0.201681,-0.363025 l 1.613445,-0.968067 V 13.478992 H 7.403361 C 7.201681,13.478992 7,13.640336 7,13.882353 v 12.10084 C 7,27.112605 7.927731,28 9.016807,28 h 9.277311 c 1.129411,0 2.016806,-0.927731 2.016806,-2.016807 v -12.10084 c 0,-0.242017 -0.20168,-0.403361 -0.403361,-0.403361 z"
       id="path2"
       sodipodi:nodetypes="sccsccscccccccccccsccccccccscccsssssscccssssssss"
       style="fill:#eff0f1;stroke-width:0.403361;fill-opacity:1" />
  </g>
  <g
     id="22-22-kteatime">
    <rect
       style="opacity:0.00100002"
       width="22"
       height="22"
       x="32"
       y="10"
       id="rect2" />
    <path
       d="m 49.100842,24.025201 c 0,1.586559 -1.747903,3.01178 -3.226891,3.307572 v -1.102516 c 0.833615,-0.268906 2.15125,-1.129415 2.15125,-2.205056 0,-2.001464 -1.498612,-2.476638 -2.15125,-2.25882 v -1.07562 c 2.020848,0 3.226891,1.338612 3.226891,3.33444 z M 38.371437,18.00168 c 0.430243,-0.430243 1.613443,-1.344533 0.726045,-2.258827 -0.591604,-0.591588 -0.215134,-1.21008 0.05373,-1.963025 -0.430252,0.430258 -1.613445,1.344547 -0.72605,2.258821 0.564697,0.564713 0.215122,1.183191 -0.05373,1.963031 z m 2.608391,0 c 0.537824,-0.537813 1.936135,-1.58656 0.860513,-2.662187 C 41.168075,14.640341 41.571437,13.91429 41.894051,13 c -0.537821,0.537823 -1.936135,1.586552 -0.860511,2.662177 0.672273,0.699174 0.268912,1.425222 -0.05373,2.339503 z m 2.742859,0 c 0.430252,-0.430243 1.640332,-1.344533 0.726048,-2.258827 -0.591588,-0.591588 -0.215116,-1.21008 0.05374,-1.963025 -0.430526,0.430258 -1.64061,1.344547 -0.726055,2.258821 0.591606,0.564713 0.215135,1.183191 -0.05373,1.963031 z m -5.378142,6.561339 h 2.151251 v -2.420166 h -2.151251 z m 7.260495,-5.243694 h -6.050413 v 1.82858 l 1.07563,0.645371 c 0.0807,0.05373 0.134456,0.134461 0.134456,0.242011 v 2.796638 c 0,0.161351 -0.134456,0.268917 -0.268917,0.268917 h -2.151251 c -0.134459,0 -0.26892,-0.107566 -0.26892,-0.268917 v -2.796638 c 0,-0.10755 0.05373,-0.188226 0.134461,-0.242011 l 1.075624,-0.645371 v -1.82858 H 37.268901 C 37.134461,19.319325 37,19.426896 37,19.58824 v 8.067215 C 37,28.4084 37.61848,29 38.344545,29 h 6.184866 c 0.752937,0 1.34454,-0.61848 1.34454,-1.344545 V 19.58824 c 0,-0.161344 -0.134458,-0.268915 -0.268911,-0.268915 z"
       id="path2-3"
       sodipodi:nodetypes="sccsccscccccccccccsccccccccscccsssssscccssssssss"
       style="fill:#eff0f1;stroke-width:0.268901;fill-opacity:1" />
  </g>
</svg>
