<?xml version="1.0" encoding="UTF-8" standalone="no"?>
<svg
   xmlns:dc="http://purl.org/dc/elements/1.1/"
   xmlns:cc="http://creativecommons.org/ns#"
   xmlns:rdf="http://www.w3.org/1999/02/22-rdf-syntax-ns#"
   xmlns:svg="http://www.w3.org/2000/svg"
   xmlns="http://www.w3.org/2000/svg"
   xmlns:xlink="http://www.w3.org/1999/xlink"
   xmlns:sodipodi="http://sodipodi.sourceforge.net/DTD/sodipodi-0.dtd"
   xmlns:inkscape="http://www.inkscape.org/namespaces/inkscape"
   width="22"
   height="22"
   viewBox="0 0 5.820833 5.8208333"
   version="1.1"
   id="svg830"
   inkscape:version="1.0.2 (e86c870879, 2021-01-15)"
   sodipodi:docname="notifications.svg">
  <defs
     id="defs824">
    <linearGradient
       inkscape:collect="always"
       id="linearGradient850">
      <stop
         style="stop-color:#eff0f1;stop-opacity:1;"
         offset="0"
         id="stop846" />
      <stop
         style="stop-color:#ff557f;stop-opacity:1"
         offset="1"
         id="stop848" />
    </linearGradient>
    <linearGradient
       inkscape:collect="always"
       xlink:href="#linearGradient850"
       id="linearGradient852"
       x1="6.3597608"
       y1="279.76071"
       x2="6.3633394"
       y2="280.19876"
       gradientUnits="userSpaceOnUse" />
    <linearGradient
       inkscape:collect="always"
       xlink:href="#linearGradient850"
       id="linearGradient862"
       gradientUnits="userSpaceOnUse"
       x1="3.0166562"
       y1="294.95038"
       x2="3.0111108"
       y2="295.24411" />
  </defs>
  <sodipodi:namedview
     id="base"
     pagecolor="#ffffff"
     bordercolor="#666666"
     borderopacity="1.0"
     inkscape:pageopacity="0.0"
     inkscape:pageshadow="2"
     inkscape:zoom="4"
     inkscape:cx="26.018355"
     inkscape:cy="-11.488905"
     inkscape:document-units="px"
     inkscape:current-layer="layer1"
     showgrid="false"
     units="px"
     inkscape:snap-intersection-paths="true"
     inkscape:object-paths="true"
     inkscape:snap-smooth-nodes="true"
     inkscape:object-nodes="true"
     inkscape:window-width="1920"
     inkscape:window-height="1007"
     inkscape:window-x="0"
     inkscape:window-y="0"
     inkscape:window-maximized="1"
     inkscape:snap-global="true"
     showguides="true"
     inkscape:document-rotation="0"
     inkscape:lockguides="false">
    <inkscape:grid
       type="xygrid"
       id="grid1375"
       originx="-0.03666466"
       originy="-5.9290208" />
  </sodipodi:namedview>
  <metadata
     id="metadata827">
    <rdf:RDF>
      <cc:Work
         rdf:about="">
        <dc:format>image/svg+xml</dc:format>
        <dc:type
           rdf:resource="http://purl.org/dc/dcmitype/StillImage" />
        <dc:title />
      </cc:Work>
    </rdf:RDF>
  </metadata>
  <style
     type="text/css"
     id="current-color-scheme" />
  <g
     inkscape:label="Layer 1"
     inkscape:groupmode="layer"
     id="layer1"
     transform="translate(-0.03666586,-297.10815)">
    <g
       id="notifications-disabled">
      <rect
         ry="1.2988289e-06"
         y="274.2334"
         x="2.1166668"
         height="8.4666662"
         width="8.4666662"
         id="rect891-7-2"
         style="opacity:0.003;fill:#050505;fill-opacity:1;stroke:none;stroke-width:0.10795;stroke-miterlimit:4;stroke-dasharray:none;stroke-opacity:1" />
      <path
         d="m 4.2779813,280.92735 h 1.147216 c 0.115414,0.41862 0.49785,0.71438 0.937963,0.71438 0.440119,0 0.822525,-0.30296 0.93797,-0.71438 h 1.147217 c 0.33911,0 0.613292,-0.27406 0.613292,-0.61315 0,-0.20214 -0.100957,-0.39689 -0.274182,-0.51242 -0.165935,-0.11564 -0.440121,-0.49052 -0.440121,-1.75313 0,-1.21225 -0.714303,-1.72455 -1.269873,-1.94088 0.0071,-0.0369 0.0071,-0.0652 0.0071,-0.0945 0,-0.39687 -0.324669,-0.72154 -0.721503,-0.72154 -0.396837,0 -0.721504,0.32467 -0.721504,0.72154 0,0.0287 0,0.0657 0.0071,0.0945 -0.555567,0.21633 -1.269871,0.72863 -1.269871,1.94088 0,1.26261 -0.274181,1.63771 -0.440118,1.75313 -0.173173,0.11588 -0.274188,0.31028 -0.274188,0.51242 0,0.33909 0.274188,0.61315 0.613295,0.61315 z m 2.085179,0.28142 c -0.202013,0 -0.382388,-0.11604 -0.476197,-0.28142 h 0.945201 c -0.08655,0.16599 -0.266984,0.28142 -0.469004,0.28142 z m 0,-5.48351 c 0.151534,0 0.266955,0.11614 0.288629,0.25976 -0.223692,-0.0359 -0.42572,-0.0222 -0.570014,0 0.01436,-0.1442 0.129836,-0.25976 0.281385,-0.25976 z m -1.551253,2.32339 c 0,-1.04623 0.649374,-1.45035 1.190504,-1.60192 l 0.01436,-0.005 c 0,0 0.151493,-0.0498 0.360749,-0.0498 0.108164,0 0.230862,0.0147 0.353552,0.0498 h 0.0071 c 0.541123,0.15145 1.190504,0.55563 1.190504,1.60183 0,0.76467 0.100946,1.34199 0.295828,1.71714 h -3.715804 c 0.202029,-0.36792 0.303036,-0.94526 0.303036,-1.70993 z m -0.678221,2.15012 h 4.451758 c 0.02869,0.0363 0.04326,0.0721 0.04326,0.11587 0,0.10033 -0.07932,0.18032 -0.180373,0.18032 h -4.170364 c -0.100946,0 -0.180378,-0.0792 -0.180378,-0.18032 0,-0.0441 0.01436,-0.0792 0.03614,-0.11587 z"
         id="path4-3-6"
         style="fill:url(#linearGradient852);fill-opacity:1;stroke-width:0.0721505" />
      <circle
         cx="7.8400393"
         cy="277.35461"
         r="0.8646583"
         id="circle6-5-3-7"
         style="fill:#ff557f;fill-opacity:1;stroke-width:0.0557844" />
    </g>
    <g
       id="22-22-notifications-disabled">
      <rect
         ry="1.2988282e-06"
         y="291.17917"
         x="2.0799481e-08"
         height="5.8208332"
         width="5.8208332"
         id="rect1383"
         style="opacity:0.003;fill:#ff1f1f;fill-opacity:1;stroke:none;stroke-width:0.10795;stroke-miterlimit:4;stroke-dasharray:none;stroke-opacity:1" />
      <path
         d="m 1.5337984,295.72994 h 0.764905 c 0.07699,0.27907 0.331941,0.47629 0.625388,0.47629 0.29345,0 0.548421,-0.20202 0.625394,-0.47629 h 0.764905 c 0.226101,0 0.408912,-0.18278 0.408912,-0.40886 0,-0.13468 -0.06737,-0.26457 -0.182811,-0.34162 -0.110642,-0.0771 -0.293451,-0.32708 -0.293451,-1.16894 0,-0.80826 -0.476258,-1.14977 -0.846685,-1.29405 0.0046,-0.0247 0.0046,-0.0437 0.0046,-0.0625 0,-0.2646 -0.216473,-0.48105 -0.481063,-0.48105 -0.264592,0 -0.481062,0.21645 -0.481062,0.48105 0,0.0193 0,0.0437 0.0046,0.0625 -0.370424,0.14428 -0.84669,0.48579 -0.84669,1.29405 0,0.84186 -0.182812,1.09202 -0.293444,1.16894 -0.1154653,0.0772 -0.1828172,0.20694 -0.1828172,0.34162 0,0.22608 0.1828172,0.40886 0.4089182,0.40886 z m 1.390293,0.18766 c -0.134691,0 -0.254954,-0.0773 -0.3175,-0.18766 h 0.63021 c -0.05776,0.11069 -0.178015,0.18766 -0.31271,0.18766 z m 0,-3.65621 c 0.101032,0 0.177992,0.0774 0.192442,0.1732 -0.149142,-0.0238 -0.283846,-0.0142 -0.380055,0 0.0098,-0.0961 0.08659,-0.1732 0.187613,-0.1732 z m -1.034298,1.54913 c 0,-0.69758 0.432972,-0.96694 0.793772,-1.06802 l 0.0098,-0.005 c 0,0 0.10101,-0.0338 0.240531,-0.0338 0.07216,0 0.153923,0.0105 0.235731,0.0338 h 0.0046 c 0.360794,0.10088 0.793768,0.37038 0.793768,1.06793 0,0.50994 0.06735,0.89482 0.197242,1.14496 h -2.477512 c 0.134702,-0.24532 0.20205,-0.63021 0.20205,-1.14015 z m -0.452202,1.43359 h 2.968206 c 0.01909,0.0241 0.02886,0.0481 0.02886,0.0772 0,0.0672 -0.05293,0.12032 -0.120263,0.12032 h -2.780591 c -0.06735,0 -0.120264,-0.0527 -0.120264,-0.12032 0,-0.0292 0.0098,-0.0527 0.02414,-0.0772 z"
         id="path4-3-6-7"
         style="fill:url(#linearGradient862);fill-opacity:1;stroke-width:0.0481061" />
      <circle
         cx="3.9617317"
         cy="293.40948"
         r="0.62944371"
         id="circle6-5-3-7-5"
         style="fill:#ff557f;fill-opacity:1;stroke-width:0.0406095" />
    </g>
    <g
       id="notifications">
      <rect
         ry="1.2988289e-06"
         y="282.71249"
         x="2.1166666"
         height="8.4666662"
         width="8.4666662"
         id="rect891-7"
         style="opacity:0.003;fill:#050505;fill-opacity:1;stroke:none;stroke-width:0.10795;stroke-miterlimit:4;stroke-dasharray:none;stroke-opacity:1" />
      <path
         d="m 4.2779811,289.40644 h 1.147216 c 0.115414,0.41862 0.49785,0.71438 0.937963,0.71438 0.440119,0 0.822525,-0.30296 0.93797,-0.71438 h 1.147217 c 0.33911,0 0.613292,-0.27406 0.613292,-0.61315 0,-0.20214 -0.100957,-0.39689 -0.274182,-0.51242 -0.165935,-0.11564 -0.440121,-0.49052 -0.440121,-1.75313 0,-1.21225 -0.714303,-1.72455 -1.269873,-1.94088 0.0071,-0.0369 0.0071,-0.0652 0.0071,-0.0945 0,-0.39687 -0.324669,-0.72154 -0.721503,-0.72154 -0.396837,0 -0.721504,0.32467 -0.721504,0.72154 0,0.0287 0,0.0657 0.0071,0.0945 -0.555567,0.21633 -1.269871,0.72863 -1.269871,1.94088 0,1.26261 -0.274181,1.63771 -0.440118,1.75313 -0.173173,0.11588 -0.274188,0.31028 -0.274188,0.51242 0,0.33909 0.274188,0.61315 0.613295,0.61315 z m 2.085179,0.28142 c -0.202013,0 -0.382388,-0.11604 -0.476197,-0.28142 h 0.945201 c -0.08655,0.16599 -0.266984,0.28142 -0.469004,0.28142 z m 0,-5.48351 c 0.151534,0 0.266955,0.11614 0.288629,0.25976 -0.223692,-0.0359 -0.42572,-0.0222 -0.570014,0 0.01436,-0.1442 0.129836,-0.25976 0.281385,-0.25976 z m -1.551253,2.32339 c 0,-1.04623 0.649374,-1.45035 1.190504,-1.60192 l 0.01436,-0.005 c 0,0 0.151493,-0.0498 0.360749,-0.0498 0.108164,0 0.230862,0.0147 0.353552,0.0498 h 0.0071 c 0.541123,0.15145 1.190504,0.55563 1.190504,1.60183 0,0.76467 0.100946,1.34199 0.295828,1.71714 h -3.715804 c 0.202029,-0.36792 0.303036,-0.94526 0.303036,-1.70993 z m -0.678221,2.15012 h 4.451758 c 0.02869,0.0363 0.04326,0.0721 0.04326,0.11587 0,0.10033 -0.07932,0.18032 -0.180373,0.18032 h -4.170364 c -0.100946,0 -0.180378,-0.0792 -0.180378,-0.18032 0,-0.0441 0.01436,-0.0792 0.03614,-0.11587 z"
         id="path4-3-6-3"
         style="fill:#eff0f1;fill-opacity:1;stroke-width:0.0721505" />
    </g>
    <g
       id="22-22-notifications">
      <rect
         ry="1.2988282e-06"
         y="297.10815"
         x="0.036665861"
         height="5.8208332"
         width="5.8208332"
         id="rect1383-2"
         style="opacity:0.003;fill:#ff1f1f;fill-opacity:1;stroke:none;stroke-width:0.10795;stroke-miterlimit:4;stroke-dasharray:none;stroke-opacity:1" />
      <path
         d="m 1.570464,301.65892 h 0.764905 c 0.07699,0.27907 0.331941,0.47629 0.625388,0.47629 0.29345,0 0.548421,-0.20202 0.625394,-0.47629 h 0.764905 c 0.226101,0 0.408912,-0.18278 0.408912,-0.40886 0,-0.13468 -0.06737,-0.26457 -0.182811,-0.34162 -0.110642,-0.0771 -0.293451,-0.32708 -0.293451,-1.16894 0,-0.80826 -0.476258,-1.14977 -0.846685,-1.29405 0.0046,-0.0247 0.0046,-0.0437 0.0046,-0.0625 0,-0.2646 -0.216473,-0.48105 -0.481063,-0.48105 -0.264592,0 -0.481062,0.21645 -0.481062,0.48105 0,0.0193 0,0.0437 0.0046,0.0625 -0.370424,0.14428 -0.84669,0.48579 -0.84669,1.29405 0,0.84186 -0.182812,1.09202 -0.293444,1.16894 -0.115465,0.0772 -0.182817,0.20694 -0.182817,0.34162 0,0.22608 0.182817,0.40886 0.408918,0.40886 z m 1.390293,0.18766 c -0.134691,0 -0.254954,-0.0773 -0.3175,-0.18766 h 0.63021 c -0.05776,0.11069 -0.178015,0.18766 -0.31271,0.18766 z m 0,-3.65621 c 0.101032,0 0.177992,0.0774 0.192442,0.1732 -0.149142,-0.0238 -0.283846,-0.0142 -0.380055,0 0.0098,-0.0961 0.08659,-0.1732 0.187613,-0.1732 z m -1.034298,1.54913 c 0,-0.69758 0.432972,-0.96694 0.793772,-1.06802 l 0.0098,-0.005 c 0,0 0.10101,-0.0338 0.240531,-0.0338 0.07216,0 0.153923,0.0105 0.235731,0.0338 h 0.0046 c 0.360794,0.10088 0.793768,0.37038 0.793768,1.06793 0,0.50994 0.06735,0.89482 0.197242,1.14496 H 1.724391 c 0.134702,-0.24532 0.20205,-0.63021 0.20205,-1.14015 z m -0.452202,1.43359 h 2.968206 c 0.01909,0.0241 0.02886,0.0481 0.02886,0.0772 0,0.0672 -0.05293,0.12032 -0.120263,0.12032 H 1.570469 c -0.06735,0 -0.120264,-0.0527 -0.120264,-0.12032 0,-0.0292 0.0098,-0.0527 0.02414,-0.0772 z"
         id="path4-3-6-7-5"
         style="fill:#eff0f1;fill-opacity:1;stroke-width:0.0481061" />
    </g>
  </g>
</svg>
