<?xml version="1.0" encoding="UTF-8" standalone="no"?>
<svg
   xmlns:dc="http://purl.org/dc/elements/1.1/"
   xmlns:cc="http://creativecommons.org/ns#"
   xmlns:rdf="http://www.w3.org/1999/02/22-rdf-syntax-ns#"
   xmlns:svg="http://www.w3.org/2000/svg"
   xmlns="http://www.w3.org/2000/svg"
   xmlns:sodipodi="http://sodipodi.sourceforge.net/DTD/sodipodi-0.dtd"
   xmlns:inkscape="http://www.inkscape.org/namespaces/inkscape"
   width="32"
   height="32"
   version="1.1"
   id="svg12"
   sodipodi:docname="applications.svg"
   inkscape:version="1.0.2 (e86c870879, 2021-01-15)">
  <g
     id="applications-other">
    <path
       style="clip-rule:evenodd;fill:#ffffc1;fill-opacity:0;fill-rule:evenodd;stroke-width:1.00213;stroke-linejoin:round;stroke-miterlimit:1.41421"
       d="M 0,0 V 32 H 32 V 0 Z"
       id="rect817"
       inkscape:connector-curvature="0" />
    <path
       d="M 13.283366,6.851207 H 10.925637 A 2.4474638,2.4473697 0 0 0 8.4781723,9.298584 v 2.357631 a 2.4474638,2.4473697 0 0 0 2.4474647,2.447375 h 4.82967 V 9.323058 A 2.4474638,2.4473697 0 0 0 13.283366,6.851207 Z m 1.631625,6.526332 H 10.925637 A 1.6316415,1.6315788 0 0 1 9.294,11.745949 V 9.323058 a 1.6316415,1.6315788 0 0 1 1.631637,-1.6315852 h 2.357729 a 1.6316415,1.6315788 0 0 1 1.631625,1.6315852 z"
       id="path4-3-3"
       style="fill:#eff0f1;fill-opacity:1;stroke-width:0.815803" />
    <path
       d="m 8.4537094,17.24437 v 2.357643 a 2.4474638,2.4473697 0 0 0 2.4474576,2.447369 h 2.35773 a 2.4474638,2.4473697 0 0 0 2.447456,-2.447369 V 14.772532 H 10.925637 A 2.4474638,2.4473697 0 0 0 8.4537094,17.24437 Z m 6.5265496,2.357643 A 1.6316415,1.6315788 0 0 1 13.34863,21.233588 H 10.925637 A 1.6316415,1.6315788 0 0 1 9.294,19.602014 v -2.357643 a 1.6316415,1.6315788 0 0 1 1.631637,-1.631566 h 4.01383 z"
       id="path6-3-6-6"
       style="fill:#eff0f1;fill-opacity:1;stroke-width:0.815803" />
    <path
       d="m 21.204981,6.851207 h -2.357718 a 2.4474638,2.4473697 0 0 0 -2.447462,2.447377 v 4.829473 h 4.80518 a 2.4474638,2.4473697 0 0 0 2.447462,-2.44737 V 9.323058 A 2.4474638,2.4473697 0 0 0 21.204981,6.851207 Z m 1.631656,4.82948 a 1.6316415,1.6315788 0 0 1 -1.631656,1.631585 H 17.191139 V 9.323058 a 1.6316415,1.6315788 0 0 1 1.631649,-1.6315852 h 2.382193 a 1.6316415,1.6315788 0 0 1 1.631656,1.6315852 z"
       id="path8-7-7"
       style="fill:#eff0f1;fill-opacity:1;stroke-width:0.815803" />
    <path
       d="M 21.204981,14.772532 H 16.37532 v 4.829481 a 2.4474638,2.4473697 0 0 0 2.447468,2.447369 h 2.382193 a 2.4474638,2.4473697 0 0 0 2.447462,-2.447368 V 17.24437 a 2.4474638,2.4473697 0 0 0 -2.447462,-2.471838 z m 1.631656,4.829481 a 1.6316415,1.6315788 0 0 1 -1.631656,1.631575 h -2.357718 a 1.6316415,1.6315788 0 0 1 -1.631646,-1.631574 v -4.013691 h 3.989364 a 1.6316415,1.6315788 0 0 1 1.631656,1.63157 z"
       id="path10-67-5-5"
       style="fill:#eff0f1;fill-opacity:1;stroke-width:0.815803" />
    <path
       d="m 16.022133,3.0013201 c 0,0 0.298219,0.013126 0.857,0.037399 0.139532,0.010837 0.296539,0.0054 0.46666,0.028579 0.170123,0.024802 0.356046,0.051718 0.557101,0.081077 0.200384,0.032509 0.418575,0.053403 0.646198,0.1019363 0.226601,0.054441 0.467334,0.1123037 0.721507,0.1734825 1.007621,0.2655917 2.227392,0.6881912 3.480114,1.4638024 1.250032,0.767875 2.560919,1.8457244 3.674787,3.3216288 1.09873,1.4762409 2.000443,3.3441619 2.406582,5.4917939 0.05984,0.266596 0.07295,0.54093 0.111315,0.815608 l 0.04841,0.415202 0.02384,0.209119 0.0047,0.241047 c 0.0028,0.534892 0.04976,1.033478 -0.0259,1.658471 -0.03025,0.296861 -0.04168,0.611204 -0.09314,0.903023 -0.05479,0.291145 -0.109897,0.583639 -0.165076,0.877809 -0.04437,0.298885 -0.145915,0.582631 -0.227612,0.875801 l -0.131404,0.438734 c -0.04038,0.148263 -0.09238,0.292494 -0.154305,0.433031 -0.421279,1.160544 -1.059745,2.258231 -1.816891,3.295068 -0.201723,0.249119 -0.407485,0.497574 -0.61728,0.744676 -0.201393,0.255512 -0.451871,0.464622 -0.678474,0.699627 l -0.350667,0.34359 c -0.119066,0.112631 -0.251151,0.210131 -0.376896,0.316028 -0.256194,0.206098 -0.510362,0.418246 -0.780002,0.609874 -1.082283,0.767523 -2.297688,1.363278 -3.578984,1.79158 C 18.735027,28.788872 17.376079,28.958981 16.022149,29 l -0.308693,-0.01343 -0.223235,-0.01226 -0.446837,-0.02562 -0.223236,-0.01225 c -0.07195,-0.0023 -0.147932,-0.0078 -0.242413,-0.02383 L 14.043821,28.8336 13.510922,28.7499 13.24532,28.70615 12.998539,28.6433 C 12.670275,28.559882 12.345165,28.465384 12.020047,28.374938 10.739143,27.944605 9.521046,27.353571 8.4387782,26.584681 8.1684876,26.394057 7.9159875,26.178895 7.6571085,25.976499 7.5313583,25.870612 7.3989011,25.772765 7.2798838,25.66013 L 6.9288306,25.316205 C 6.7018814,25.080854 6.4514012,24.871744 6.2500153,24.615899 6.0432459,24.367109 5.8368116,24.119 5.6310494,23.8719 4.8745824,22.833376 4.233428,21.736369 3.8124914,20.574466 3.3959235,19.416607 3.1114887,18.236882 3.0439084,17.070949 2.9705884,16.492692 3.0103344,15.91545 3.0142784,15.35332 l 0.00687,-0.251822 0.02389,-0.195321 0.047778,-0.388985 c 0.037888,-0.263575 0.04866,-0.504295 0.1084977,-0.781653 0.059457,-0.274004 0.118674,-0.546329 0.1771827,-0.816627 0.03195,-0.133134 0.054433,-0.269975 0.094493,-0.397043 L 3.597016,12.144629 C 3.679734,11.895577 3.7614516,11.648811 3.8428162,11.404055 3.9416462,11.165675 4.0495618,10.9337 4.1510988,10.70274 4.334644,10.232729 4.5982322,9.809804 4.8305583,9.387193 4.9401937,9.172033 5.0850775,8.9797218 5.2188891,8.7850684 5.3523624,8.5907504 5.4841601,8.3984432 5.6149449,8.2081532 6.7298167,6.7322448 8.0417097,5.6547322 9.292415,4.8875279 10.545474,4.1119204 11.765573,3.6903312 12.773206,3.4243985 13.027378,3.3634665 13.2681,3.3057281 13.494715,3.2512582 c 0.227606,-0.048297 0.44547,-0.069147 0.645861,-0.1019465 0.200719,-0.029329 0.386648,-0.056064 0.556761,-0.081107 0.170464,-0.023949 0.327812,-0.018876 0.466992,-0.028579 0.559462,-0.024626 0.857678,-0.037699 0.857678,-0.037699 z m 0,0 c 0,0 -0.297879,0.017066 -0.856327,0.048971 -0.139196,0.0122 -0.2962,0.00937 -0.465988,0.034967 -0.169783,0.027319 -0.354705,0.056438 -0.554747,0.088417 -0.199375,0.035256 -0.416564,0.058718 -0.642499,0.1102807 C 13.27866,3.3454198 13.040962,3.4106997 12.789468,3.479625 11.798318,3.7825408 10.601411,4.2468317 9.433413,5.1000979 8.2617255,5.9311761 7.0930574,7.1008094 6.2101634,8.6049584 5.7882188,9.366447 5.3988897,10.183749 5.1477418,11.075676 c -0.06185,0.222902 -0.1294382,0.445117 -0.1876082,0.671041 -0.040994,0.230307 -0.081976,0.462275 -0.1237098,0.695939 l -0.0629,0.349311 c -0.01948,0.116623 -0.01948,0.231989 -0.030222,0.347633 -0.01745,0.229629 -0.035251,0.460924 -0.053111,0.693913 -0.020177,0.229284 0.00427,0.507994 0.00407,0.762494 l 0.008,0.392013 0.00437,0.197014 c -6.729e-4,0.04639 0.00101,-0.03532 0.0028,-0.01852 l 0.00363,0.02289 0.00633,0.04572 0.012499,0.09143 c 0.070283,0.48752 0.1011704,0.980379 0.2380451,1.461825 0.1899638,0.975642 0.5917381,1.910946 1.0419233,2.809266 0.1250828,0.218523 0.250814,0.438069 0.3768939,0.65861 0.1274238,0.218189 0.2914937,0.416215 0.4306847,0.627677 l 0.216547,0.313017 0.2474528,0.29182 c 0.1688237,0.191301 0.3228073,0.394364 0.500996,0.577261 0.7003266,0.746353 1.5186644,1.373697 2.3786944,1.928429 l 0.672762,0.373506 c 0.218197,0.135831 0.468677,0.209456 0.697634,0.323424 l 0.349661,0.160037 c 0.118017,0.04974 0.242744,0.08336 0.363445,0.1264 0.244425,0.078 0.483133,0.17381 0.730583,0.240721 0.250481,0.05778 0.501291,0.111614 0.749751,0.176157 l 0.186251,0.04703 0.175851,0.02351 0.351002,0.05115 0.350328,0.05621 c 0.0521,0.01208 0.125061,0.01606 0.202398,0.01844 l 0.22358,0.0091 0.447161,0.01949 0.22358,0.0091 0.111614,0.0044 0.0558,0.0028 0.0279,0.0013 c -0.02858,-3.36e-4 0.103542,0.0027 -0.05716,-6.71e-4 1.03217,-0.01521 2.05526,-0.153644 3.049097,-0.416549 0.247789,-0.06694 0.486496,-0.163056 0.730921,-0.241052 0.120698,-0.04306 0.245433,-0.07704 0.363443,-0.126747 l 0.350006,-0.159455 c 0.230981,-0.110267 0.480446,-0.186927 0.698986,-0.322076 l 0.672981,-0.373664 c 0.864059,-0.551028 1.678693,-1.18375 2.382726,-1.92742 0.178182,-0.183228 0.332164,-0.386291 0.500944,-0.577924 l 0.247451,-0.292153 0.216526,-0.313337 c 0.140193,-0.211133 0.304597,-0.409157 0.43203,-0.628019 0.126057,-0.220547 0.25182,-0.440419 0.376891,-0.659282 0.13953,-0.214159 0.213491,-0.455886 0.326796,-0.681475 0.100865,-0.230289 0.223915,-0.454202 0.292503,-0.694916 0.0817,-0.238029 0.162733,-0.475046 0.243415,-0.711064 0.0787,-0.23635 0.114323,-0.464292 0.175835,-0.697281 0.134827,-0.434704 0.172818,-1.006229 0.242072,-1.520954 l 0.01205,-0.09821 0.0058,-0.04906 0.0028,-0.02461 c 0.0016,-0.01755 -0.0012,0.06456 0,0.01877 l 0.0038,-0.183229 0.0091,-0.365781 c 0,-0.243068 0.02621,-0.488496 0.0059,-0.728207 -0.07933,-1.92976 -0.64614,-3.759016 -1.525667,-5.2624943 C 24.958299,7.0963442 23.788283,5.9270505 22.615911,5.0969784 21.447586,4.2440491 20.250005,3.7804275 19.25919,3.4775154 19.007706,3.4086077 18.770004,3.3433722 18.54608,3.2821875 18.319815,3.2308286 18.102962,3.2072685 17.903586,3.1722734 17.703536,3.1403046 17.518283,3.1107957 17.348839,3.0838568 17.179054,3.0575978 17.02171,3.0606977 16.882514,3.0488341 16.324158,3.0169743 16.026278,3 16.026278,3 Z"
       id="path2-3-5-3-3"
       style="fill:#eff0f1;fill-opacity:1;stroke-width:0.336205" />
  </g>
  <g
     id="22-22-applications-other"
     transform="translate(32,9.9999997)">
    <path
       style="clip-rule:evenodd;fill:#ffffc1;fill-opacity:0;fill-rule:evenodd;stroke-width:0.688964;stroke-linejoin:round;stroke-miterlimit:1.41421"
       d="M 0,0 V 22 H 22 V 0 Z"
       id="rect817-5"
       inkscape:connector-curvature="0" />
    <path
       d="m 8.9103298,6.5460951 h -1.813659 a 1.8826914,1.8826914 0 0 0 -1.882692,1.882697 v 1.8136609 a 1.8826914,1.8826914 0 0 0 1.882692,1.882695 H 10.811852 V 8.4476211 A 1.8826914,1.8826914 0 0 0 8.9103298,6.5460951 Z M 10.165453,11.566612 H 7.0966708 a 1.255127,1.255127 0 0 1 -1.255126,-1.25513 V 8.4476211 a 1.255127,1.255127 0 0 1 1.255126,-1.255133 h 1.813659 a 1.255127,1.255127 0 0 1 1.2551232,1.255133 z"
       id="path4-3"
       style="fill:#eff0f1;fill-opacity:1;stroke-width:0.627559" />
    <path
       d="m 5.1951558,14.541259 v 1.813666 a 1.8826914,1.8826914 0 0 0 1.882687,1.882689 h 1.813665 A 1.8826914,1.8826914 0 0 0 10.774195,16.354925 V 12.639744 H 7.0966708 a 1.8826914,1.8826914 0 0 0 -1.901515,1.901515 z M 10.21566,16.354925 A 1.255127,1.255127 0 0 1 8.9605348,17.610053 H 7.0966708 A 1.255127,1.255127 0 0 1 5.8415448,16.354926 V 14.54126 a 1.255127,1.255127 0 0 1 1.255126,-1.255121 h 3.0876102 z"
       id="path6-3-6"
       style="fill:#eff0f1;fill-opacity:1;stroke-width:0.627559" />
    <path
       d="m 15.003977,6.5460951 h -1.813663 a 1.8826914,1.8826914 0 0 0 -1.882693,1.882697 v 3.7151789 h 3.696356 a 1.8826914,1.8826914 0 0 0 1.882689,-1.882693 V 8.4476211 a 1.8826914,1.8826914 0 0 0 -1.882689,-1.901526 z m 1.255131,3.7151829 a 1.255127,1.255127 0 0 1 -1.255131,1.255125 H 11.91636 V 8.4476211 a 1.255127,1.255127 0 0 1 1.255125,-1.255133 h 1.832492 a 1.255127,1.255127 0 0 1 1.255131,1.255133 z"
       id="path8-7"
       style="fill:#eff0f1;fill-opacity:1;stroke-width:0.627559" />
    <path
       d="m 15.003977,12.639744 h -3.715186 v 3.715181 a 1.8826914,1.8826914 0 0 0 1.882694,1.882689 h 1.832492 a 1.8826914,1.8826914 0 0 0 1.882689,-1.882688 v -1.813667 a 1.8826914,1.8826914 0 0 0 -1.882689,-1.901515 z m 1.255131,3.715181 a 1.255127,1.255127 0 0 1 -1.255131,1.255128 h -1.813663 a 1.255127,1.255127 0 0 1 -1.255126,-1.255127 v -3.08762 h 3.068789 a 1.255127,1.255127 0 0 1 1.255131,1.255122 z"
       id="path10-67-5"
       style="fill:#eff0f1;fill-opacity:1;stroke-width:0.627559" />
    <path
       d="m 11.01212,20.999929 c 0,0 -0.229402,-0.0101 -0.65924,-0.02873 -0.107331,-0.0078 -0.22811,-0.0038 -0.3589743,-0.02198 -0.130865,-0.0191 -0.27389,-0.03979 -0.428545,-0.06234 -0.154146,-0.02503 -0.321993,-0.04109 -0.497082,-0.07838 -0.174316,-0.04188 -0.359496,-0.08639 -0.555014,-0.133451 -0.775105,-0.204316 -1.713407,-0.529408 -2.677055,-1.126063 -0.961573,-0.590706 -1.969961,-1.419864 -2.826794,-2.555235 -0.845194,-1.135635 -1.538831,-2.572568 -1.85125,-4.22468 -0.04604,-0.20509 -0.05615,-0.416126 -0.0856,-0.627425 l -0.03721,-0.319403 -0.01838,-0.16087 -0.0037,-0.185433 c -0.0028,-0.411479 -0.03831,-0.795024 0.0199,-1.27581 0.02325,-0.2283663 0.03208,-0.4701813 0.07162,-0.6946733 0.04219,-0.223969 0.08456,-0.448975 0.126984,-0.675275 0.03417,-0.22992 0.112248,-0.448201 0.175094,-0.673724 l 0.10109,-0.33751 c 0.03104,-0.114055 0.07108,-0.225006 0.118707,-0.333112 0.32406,-0.892781 0.815194,-1.737199 1.397623,-2.534805 0.155175,-0.191643 0.313457,-0.382768 0.474839,-0.57286 0.154921,-0.196556 0.347595,-0.357422 0.521913,-0.538202 l 0.269747,-0.264318 c 0.09156,-0.08664 0.193195,-0.161641 0.28992,-0.243109 0.197077,-0.158538 0.392596,-0.321732 0.600015,-0.469149 0.832534,-0.590441 1.767477,-1.048729 2.753105,-1.378219 0.991309,-0.322756 2.036678,-0.453621 3.0781733,-0.48517303 l 0.237457,0.01035 0.171728,0.0098 0.343716,0.01966 0.171729,0.0098 c 0.05534,0.0023 0.113797,0.0059 0.18647,0.01836 l 0.410714,0.06078 0.409923,0.0644 0.204316,0.03363 0.189838,0.04837 c 0.252772,0.06418 0.502864,0.136854 0.752955,0.206425 0.985366,0.331043 1.922373,0.785709 2.754899,1.377189 0.207934,0.146642 0.402167,0.312164 0.601308,0.467858 0.09673,0.08147 0.198624,0.156728 0.290177,0.243367 l 0.270045,0.264579 c 0.174579,0.18104 0.367259,0.341905 0.522174,0.53872 0.159055,0.191385 0.317853,0.382252 0.476133,0.572342 0.581907,0.798899 1.07511,1.6428 1.398911,2.536616 0.320442,0.890712 0.539242,1.798235 0.591227,2.6951573 0.0564,0.444837 0.02583,0.888896 0.02279,1.321327 l -0.0053,0.19371 -0.01837,0.150258 -0.03675,0.299236 c -0.02919,0.202758 -0.03749,0.387937 -0.08351,0.601306 -0.04573,0.210783 -0.09129,0.42027 -0.136296,0.628207 -0.02457,0.102417 -0.04188,0.207679 -0.07269,0.305436 l -0.09543,0.290183 c -0.06361,0.191384 -0.126469,0.381213 -0.189058,0.569492 -0.07604,0.183373 -0.159055,0.361824 -0.237161,0.5395 -0.141209,0.361562 -0.343973,0.686913 -0.522687,1.012009 -0.08433,0.165521 -0.195781,0.313457 -0.298713,0.4632 -0.102674,0.149483 -0.204058,0.297419 -0.304663,0.443804 -0.857606,1.135374 -1.86677,1.964273 -2.828864,2.554463 -0.963904,0.596652 -1.90246,0.920969 -2.677567,1.125543 -0.195525,0.04683 -0.3807,0.09129 -0.555014,0.133193 -0.175092,0.03721 -0.342681,0.05325 -0.496823,0.07839 -0.154402,0.02252 -0.297423,0.04316 -0.428291,0.06235 -0.13112,0.01839 -0.252158,0.01449 -0.35923,0.02198 -0.430355,0.01891 -0.659757,0.02899 -0.659757,0.02899 z m 0,0 c 0,0 0.229144,-0.01315 0.658725,-0.03771 0.107071,-0.0094 0.227852,-0.0069 0.358458,-0.02692 0.130605,-0.02097 0.272849,-0.04345 0.426733,-0.06802 0.153364,-0.02715 0.32044,-0.04523 0.494237,-0.08484 0.172245,-0.04731 0.355093,-0.0975 0.548545,-0.150522 0.762434,-0.233024 1.683146,-0.590186 2.581622,-1.246582 0.901311,-0.639323 1.800299,-1.539089 2.479458,-2.696188 0.324578,-0.585792 0.624066,-1.214515 0.817259,-1.900653 0.04757,-0.171467 0.09957,-0.342417 0.144317,-0.516215 0.03154,-0.177165 0.06306,-0.355614 0.09516,-0.535361 l 0.04838,-0.268713 c 0.01498,-0.08971 0.01498,-0.178456 0.02325,-0.267425 0.01343,-0.176639 0.02712,-0.354574 0.04086,-0.533806 0.01552,-0.176381 -0.0033,-0.390784 -0.0031,-0.586562 l -0.0062,-0.30156 -0.0034,-0.151556 c 5.18e-4,-0.03566 -7.76e-4,0.02712 -0.0022,0.01427 l -0.0028,-0.01757 -0.0049,-0.03513 -0.0096,-0.07036 c -0.05406,-0.375009 -0.07782,-0.754157 -0.183107,-1.124516 -0.146123,-0.7505333 -0.455184,-1.4700343 -0.801485,-2.1610863 -0.09622,-0.168108 -0.192937,-0.336992 -0.289923,-0.506651 -0.09802,-0.167849 -0.224229,-0.32018 -0.331301,-0.482857 l -0.166556,-0.240782 -0.190351,-0.224488 c -0.129831,-0.147159 -0.248282,-0.30337 -0.385353,-0.444063 -0.53872,-0.574153 -1.168217,-1.056751 -1.829789,-1.483486 l -0.517514,-0.287335 c -0.167847,-0.104485 -0.360524,-0.161124 -0.536649,-0.248799 l -0.268972,-0.123107 c -0.0908,-0.03828 -0.18673,-0.06414 -0.279578,-0.09724 -0.188021,-0.06 -0.371646,-0.13371 -0.561996,-0.185177 -0.192679,-0.04449 -0.385614,-0.08586 -0.57674,-0.13552 l -0.143277,-0.03621 -0.135265,-0.0181 -0.270006,-0.03931 -0.269489,-0.04319 c -0.0401,-0.0096 -0.09621,-0.01242 -0.155695,-0.01423 l -0.171985,-0.0075 -0.343975,-0.015 -0.171986,-0.0075 -0.08584,-0.0039 -0.04295,-0.0026 -0.02148,-0.0013 c 0.02198,2.58e-4 -0.07962,-0.0026 0.04396,5.17e-4 -0.793983,0.01164 -1.5809873,0.118193 -2.3454903,0.320439 -0.19061,0.05147 -0.374233,0.125434 -0.562255,0.185436 -0.09287,0.0331 -0.188798,0.05923 -0.279574,0.0975 l -0.269234,0.12259 c -0.177677,0.08483 -0.369578,0.143797 -0.537684,0.247764 l -0.517684,0.287564 c -0.664673,0.42389 -1.291326,0.910626 -1.832891,1.48271 -0.137073,0.140952 -0.255525,0.297163 -0.385357,0.44458 l -0.190348,0.224746 -0.166556,0.241042 c -0.107846,0.162417 -0.234315,0.314749 -0.332337,0.483115 -0.09699,0.16966 -0.19371,0.338801 -0.289919,0.507168 -0.107332,0.164746 -0.164229,0.350699 -0.251384,0.524238 -0.07757,0.177157 -0.172249,0.349406 -0.225006,0.534581 -0.06289,0.183108 -0.125179,0.36544 -0.187249,0.547 -0.06052,0.1818173 -0.08793,0.3571663 -0.135263,0.5363963 -0.103708,0.334405 -0.132934,0.774065 -0.186211,1.170029 l -0.0096,0.07551 -0.0048,0.03771 -0.0028,0.01892 c -0.0016,0.01346 0.0012,-0.04964 0,-0.01448 l -0.0034,0.140952 -0.0072,0.281385 c 0,0.186988 -0.02021,0.375787 -0.0049,0.560189 0.06237,1.485552 0.498374,2.892742 1.174944,4.049325 0.679687,1.157165 1.579711,2.056669 2.481547,2.69522 0.898728,0.656138 1.819955,1.012788 2.582132,1.245808 0.193453,0.053 0.376304,0.103193 0.548548,0.15026 0.174057,0.03954 0.340869,0.05766 0.494237,0.08455 0.153884,0.02456 0.296386,0.04732 0.426735,0.06802 0.1306063,0.02021 0.2516433,0.01781 0.3587133,0.02695 0.429842,0.02458 0.658982,0.03771 0.658982,0.03771 z"
       id="path2-3-5-3"
       style="fill:#eff0f1;fill-opacity:1;stroke-width:0.258632" />
  </g>
  <metadata
     id="metadata18">
    <rdf:RDF>
      <cc:Work
         rdf:about="">
        <dc:format>image/svg+xml</dc:format>
        <dc:type
           rdf:resource="http://purl.org/dc/dcmitype/StillImage" />
      </cc:Work>
    </rdf:RDF>
  </metadata>
  <defs
     id="defs16" />
  <sodipodi:namedview
     pagecolor="#ffffff"
     bordercolor="#666666"
     borderopacity="1"
     objecttolerance="10"
     gridtolerance="10"
     guidetolerance="10"
     inkscape:pageopacity="0"
     inkscape:pageshadow="2"
     inkscape:window-width="1920"
     inkscape:window-height="1007"
     id="namedview14"
     showgrid="false"
     inkscape:zoom="9.8125003"
     inkscape:cx="21.053567"
     inkscape:cy="15.709784"
     inkscape:window-x="0"
     inkscape:window-y="0"
     inkscape:window-maximized="1"
     inkscape:current-layer="svg12"
     inkscape:document-rotation="0"
     showguides="true"
     inkscape:lockguides="false">
    <inkscape:grid
       type="xygrid"
       id="grid942"
       originx="0"
       originy="0" />
  </sodipodi:namedview>
</svg>
