<?xml version="1.0" encoding="UTF-8" standalone="no"?>
<svg
   xmlns:dc="http://purl.org/dc/elements/1.1/"
   xmlns:cc="http://creativecommons.org/ns#"
   xmlns:rdf="http://www.w3.org/1999/02/22-rdf-syntax-ns#"
   xmlns:svg="http://www.w3.org/2000/svg"
   xmlns="http://www.w3.org/2000/svg"
   xmlns:sodipodi="http://sodipodi.sourceforge.net/DTD/sodipodi-0.dtd"
   xmlns:inkscape="http://www.inkscape.org/namespaces/inkscape"
   width="32"
   height="32"
   version="1.1"
   id="svg12"
   sodipodi:docname="drive.svg"
   inkscape:version="1.0.2 (e86c870879, 2021-01-15)">
  <g
     id="22-22-drive-harddisk"
     transform="translate(32,10.000001)">
    <rect
       style="opacity:0.00100002"
       width="22"
       height="22"
       x="0"
       y="-4.6325681e-08"
       id="rect2" />
    <path
       d="m 10.92882,8.799612 a 1.955556,1.955556 0 1 0 1.955563,1.955557 1.955556,1.955556 0 0 0 -1.955563,-1.955557 z m 0,2.933334 a 0.97777796,0.97777796 0 1 1 0.977781,-0.977777 0.97777796,0.97777796 0 0 1 -0.977781,0.977777 z"
       id="path6-36"
       style="fill:#00adcf;fill-opacity:1;stroke-width:0.488883" />
    <path
       d="M 15.690702,3 H 6.3035 C 5.64158,3 5.1,3.6 5.1,4.333337 V 17.666664 C 5.1,18.4 5.64158,19 6.3035,19 h 9.387202 c 0.661919,0 1.203486,-0.6 1.203486,-1.333336 V 4.333337 C 16.894188,3.6 16.352621,3 15.690702,3 Z m 0.601752,14.666664 c 0,0.366666 -0.270793,0.666666 -0.601752,0.666666 H 6.3035 c -0.33097,0 -0.601753,-0.3 -0.601753,-0.666666 V 4.333337 c 0,-0.366675 0.270783,-0.666675 0.601753,-0.666675 h 9.387202 c 0.330959,0 0.601752,0.3 0.601752,0.666675 z"
       id="path2-75"
       style="fill:#eff0f1;fill-opacity:1;stroke-width:0.31669" />
    <path
       d="m 10.959791,13.51087 c -1.563104,0 -2.834751,-1.271635 -2.834751,-2.834752 0,-0.562675 0.166774,-1.105924 0.475994,-1.568666 H 8.33858 c -0.11786,0 -0.21354,-0.09567 -0.21354,-0.213542 V 5.853297 C 8.12504,5.73543 8.2207,5.63976 8.33858,5.63976 h 5.241997 c 0.118093,0 0.213545,0.09565 0.213545,0.213537 v 3.040395 c 0,0.117873 -0.09542,0.213543 -0.213545,0.213543 h -0.262434 c 0.309202,0.462959 0.475979,1.006208 0.475979,1.568674 0,1.563326 -1.271422,2.834961 -2.834331,2.834961 z M 8.552119,8.680149 h 0.48944 c 0.08499,0 0.161861,0.05039 0.195811,0.128349 0.03394,0.07793 0.01839,0.168476 -0.03949,0.230827 -0.416402,0.447803 -0.64575,1.029054 -0.64575,1.636793 0,1.327582 1.080094,2.407675 2.407674,2.407675 1.32737,0 2.407244,-1.080303 2.407244,-2.407675 0,-0.607308 -0.229341,-1.188573 -0.645527,-1.637 -0.0579,-0.06234 -0.07326,-0.152903 -0.0395,-0.23062 0.03394,-0.07793 0.111035,-0.128349 0.195812,-0.128349 h 0.489212 V 6.066832 h -4.81487 z"
       id="path4-3"
       style="fill:#eff0f1;fill-opacity:1;stroke-width:0.213534" />
    <path
       d="M 12.690694,16.243102 H 9.41 c -0.134927,0 -0.244441,-0.10951 -0.244441,-0.244444 0,-0.134933 0.109514,-0.24444 0.244441,-0.24444 h 3.280694 c 0.135175,0 0.244441,0.109507 0.244441,0.24444 0,0.134934 -0.109266,0.244444 -0.244441,0.244444 z"
       id="path6-3-5"
       style="fill:#eff0f1;fill-opacity:1;stroke-width:0.24444" />
    <path
       d="m 8.725338,7.236398 c 0,0.02255 -0.0036,0.07238 0.002,0.09494 v 0 c -0.0017,0.04641 -6.47e-4,0.09679 0.01419,0.140863 0.0064,0.03927 0,0 0,0 -0.01242,-0.0242 0.03784,0.136312 0.09008,0.201559 v 0 c 0.0252,0.04249 0.04956,0.0809 0.08339,0.114301 0.01022,0.01377 0.01889,0.02254 0.01022,0.01377 0,0.0024 -0.01022,-0.01497 -0.01022,-0.01377 0.01506,0.01881 0.04654,0.05641 0.06254,0.0752 0.02766,0.02885 0.05641,0.05516 0.08652,0.0815 v 0 c 0.005,0.0015 0.01991,0.01503 0.02622,0.02008 0.01114,0.0075 0.02284,0.01629 0.03396,0.0238 0.05774,0.03889 0.116619,0.07523 0.176796,0.111595 0.315961,0.185567 0.649472,0.343552 0.98304,0.495264 0.18678,0.08526 0.373615,0.168019 0.56171,0.249515 0.04509,0.02008 0.09031,0.03889 0.135383,0.05768 0.02377,0.01004 0.04749,0.02008 0.07143,0.03012 0.0051,0.0014 0.0077,0.0024 0.0102,0.005 v 0 0 l 0.0051,0.0014 v 0 0 0 c 0.0051,0.0024 0.0083,0.0039 0.01358,0.0062 l 0.0051,0.0014 v 0 l 0.0051,0.0014 c 0.08776,0.03764 0.176795,0.07398 0.264562,0.110335 0.09529,0.03889 0.189355,0.07774 0.284637,0.116609 -0.05891,-0.145446 -0.11909,-0.290893 -0.179315,-0.436338 -0.01651,-0.0401 -0.03251,-0.08024 -0.05019,-0.120368 v -0.0014 -0.0039 -0.0024 -0.0014 0 0 -0.0024 -0.0024 0 c -0.0051,-0.0075 -0.0066,-0.01629 -0.01021,-0.02255 -0.0084,-0.02134 -0.01742,-0.04137 -0.02622,-0.06269 -0.04025,-0.09404 -0.08149,-0.188079 -0.121617,-0.282121 -0.08149,-0.188074 -0.165545,-0.374896 -0.25205,-0.560463 -0.147943,-0.317223 -0.299668,-0.636957 -0.486455,-0.934115 -0.01741,-0.02886 -0.03634,-0.05769 -0.05647,-0.08529 -0.0077,-0.0113 -0.01506,-0.02255 -0.02376,-0.03386 -0.005,-0.0065 -0.01022,-0.01374 -0.01259,-0.01755 v -0.0015 c -0.02858,-0.03386 -0.05892,-0.06644 -0.09152,-0.09656 -0.01741,-0.0163 -0.03633,-0.03131 -0.05519,-0.04764 v 0 c -0.005,-0.0024 -0.0078,-0.0052 -0.01356,-0.01006 -0.03633,-0.02505 -0.07396,-0.04886 -0.112838,-0.07021 -0.01991,-0.01131 -0.04119,-0.02257 -0.06272,-0.03262 -0.0066,-0.0042 -0.0189,-0.0064 -0.02622,-0.01131 -0.07773,-0.02762 -0.155458,-0.05019 -0.235713,-0.06394 v 0 c -0.0084,-0.0017 -0.01651,-0.0017 -0.02517,-0.0024 -0.02283,-0.0024 -0.0451,-0.0042 -0.06899,-0.0042 -0.04025,-0.0017 -0.08024,0 -0.120352,0.0024 -0.01405,0.0017 -0.02767,0.0024 -0.04119,0.0042 -0.01506,0.0023 -0.03005,0.0053 -0.04509,0.0079 -0.04261,0.0084 -0.08402,0.01879 -0.125349,0.0326 -0.02282,0.0079 -0.04409,0.01505 -0.0652,0.02257 -0.005,0.0016 -0.0066,0.0024 -0.0078,0.0024 v 0 0 c -0.005,0.0016 -0.0066,0.0042 -0.01114,0.0053 -0.03777,0.01755 -0.07396,0.03634 -0.109104,0.05769 -0.02285,0.01379 -0.0451,0.02762 -0.0677,0.0439 -0.0051,0.0024 -0.02138,0.0163 -0.02766,0.02005 v 0 c -0.03005,0.02635 -0.06013,0.05141 -0.089,0.08025 -0.02138,0.02131 -0.04261,0.04391 -0.06266,0.06773 -0.0081,0.0084 -0.01027,0.0113 -0.01894,0.02006 -0.02856,0.03386 0.01417,-0.01399 0.01894,-0.02006 -0.03251,0.0238 -0.08043,0.111606 -0.100473,0.146713 -0.01258,0.02261 -0.02999,0.05645 -0.04114,0.08025 0,0.0025 0,0 0,0 0.0066,-0.0086 0.01742,-0.02127 0,0 -0.01651,0.04262 -0.03882,0.105328 -0.04994,0.150467 -0.0066,0.02506 -0.0165,0.07523 -0.0165,0.07523 0,0 -0.01241,0.0337 0,0 C 8.73039,7.103204 8.72597,7.237055 8.72597,7.237055 Z M 9.734652,6.816364 c 0.210648,0 0.382442,0.171775 0.382442,0.382422 0,0.210646 -0.171794,0.382422 -0.382442,0.382422 -0.210634,0 -0.382395,-0.171776 -0.382395,-0.382422 0,-0.210647 0.171761,-0.382422 0.382395,-0.382422 z"
       id="path6-7-6"
       style="fill:#eff0f1;fill-opacity:1;stroke-width:0.012538"
       sodipodi:nodetypes="sccccccccccsscccccccscccccsccccccccccccccccsccccccccccssccccsscccccccscscscssccccccccccccssssss" />
  </g>
  <metadata
     id="metadata18">
    <rdf:RDF>
      <cc:Work
         rdf:about="">
        <dc:format>image/svg+xml</dc:format>
        <dc:type
           rdf:resource="http://purl.org/dc/dcmitype/StillImage" />
      </cc:Work>
    </rdf:RDF>
  </metadata>
  <defs
     id="defs16" />
  <sodipodi:namedview
     pagecolor="#ffffff"
     bordercolor="#666666"
     borderopacity="1"
     objecttolerance="10"
     gridtolerance="10"
     guidetolerance="10"
     inkscape:pageopacity="0"
     inkscape:pageshadow="2"
     inkscape:window-width="1920"
     inkscape:window-height="1007"
     id="namedview14"
     showgrid="false"
     inkscape:zoom="8.0000004"
     inkscape:cx="27.353367"
     inkscape:cy="9.8093857"
     inkscape:window-x="0"
     inkscape:window-y="0"
     inkscape:window-maximized="1"
     inkscape:current-layer="svg12"
     inkscape:document-rotation="0"
     inkscape:lockguides="false">
    <inkscape:grid
       type="xygrid"
       id="grid875"
       originx="0"
       originy="-4.6325683e-08" />
  </sodipodi:namedview>
  <g
     id="drive-harddisk">
    <rect
       style="opacity:0.00100002"
       width="32"
       height="32"
       x="0"
       y="0"
       id="rect7" />
    <path
       d="m 15.943226,12.699419 a 2.9333334,2.9333334 0 1 0 2.933341,2.933334 2.9333334,2.9333334 0 0 0 -2.933341,-2.933334 z m 0,4.4 a 1.4666666,1.4666666 0 1 1 1.466675,-1.466666 1.4666666,1.4666666 0 0 1 -1.466675,1.466666 z"
       id="path6"
       style="fill:#00adcf;fill-opacity:1;stroke-width:0.733334" />
    <path
       d="M 23.08606,4 H 9.005253 C 8.012374,4 7.2,4.9 7.2,5.9999993 V 25.999995 C 7.2,27.1 8.012374,28 9.005253,28 H 23.08606 c 0.992879,0 1.805226,-0.9 1.805226,-2.000005 V 5.9999993 C 24.891286,4.9 24.078939,4 23.08606,4 Z m 0.902623,21.999995 c 0,0.55 -0.4062,1 -0.902623,1 H 9.005253 c -0.496462,0 -0.902626,-0.45 -0.902626,-1 V 5.9999993 C 8.102627,5.45 8.508791,5.0000001 9.005253,5.0000001 H 23.08606 c 0.496423,0 0.902623,0.4499999 0.902623,0.9999992 z"
       id="path2"
       style="fill:#eff0f1;fill-opacity:1;stroke-width:0.475032" />
    <path
       d="m 15.989691,19.766304 c -2.344664,0 -4.252124,-1.907451 -4.252124,-4.252127 0,-0.844013 0.250157,-1.658887 0.713975,-2.352999 h -0.393678 c -0.176795,0 -0.320297,-0.143508 -0.320297,-0.320313 V 8.2799413 c 0,-0.1768003 0.143502,-0.3203 0.320297,-0.3203 h 7.863005 c 0.17714,0 0.320313,0.1434997 0.320313,0.3203 v 4.5605967 c 0,0.17681 -0.143173,0.320314 -0.320313,0.320314 h -0.393661 c 0.463817,0.694438 0.713974,1.509312 0.713974,2.353011 0,2.34499 -1.90713,4.252441 -4.251491,4.252441 z m -3.611512,-7.246081 h 0.734166 c 0.127474,0 0.242777,0.07559 0.293717,0.192523 0.05088,0.116896 0.02753,0.252716 -0.05928,0.346242 -0.624614,0.671704 -0.968624,1.543581 -0.968624,2.455189 0,1.991373 1.620134,3.611512 3.611509,3.611512 1.991058,0 3.610867,-1.620454 3.610867,-3.611512 0,-0.910961 -0.344011,-1.782859 -0.968301,-2.455499 -0.08684,-0.09352 -0.109878,-0.229356 -0.05929,-0.345932 0.05088,-0.116895 0.166553,-0.192523 0.29371,-0.192523 h 0.733838 v -3.91997 h -7.222304 z"
       id="path4"
       style="fill:#eff0f1;fill-opacity:1;stroke-width:0.320306" />
    <path
       d="m 18.586041,23.864653 h -4.921034 c -0.2024,0 -0.366666,-0.164266 -0.366666,-0.366666 0,-0.2024 0.164266,-0.366659 0.366666,-0.366659 h 4.921034 c 0.202766,0 0.366666,0.164259 0.366666,0.366659 0,0.2024 -0.1639,0.366666 -0.366666,0.366666 z"
       id="path6-3"
       style="fill:#eff0f1;fill-opacity:1;stroke-width:0.366666" />
    <path
       d="m 12.638,10.354598 c 0,0.03383 -0.005,0.10857 0.0022,0.142406 v 0 c -0.0018,0.06961 -9.73e-4,0.145179 0.02131,0.211294 0.0092,0.05889 0,0 0,0 -0.01866,-0.0363 0.05682,0.204468 0.135085,0.302339 v 0 c 0.03783,0.06375 0.07436,0.121353 0.125062,0.171451 0.01527,0.02065 0.02836,0.03381 0.01527,0.02065 0,0.0037 -0.01527,-0.02245 -0.01527,-0.02065 0.02254,0.02822 0.06974,0.08461 0.09374,0.1128 0.04145,0.04327 0.0846,0.08275 0.129767,0.122251 v 0 c 0.0072,0.0023 0.02981,0.02255 0.03927,0.03011 0.01674,0.01126 0.03419,0.02444 0.0509,0.03571 0.08654,0.05833 0.174928,0.112848 0.265193,0.167392 0.47394,0.278351 0.974212,0.515329 1.474561,0.742897 0.280172,0.127895 0.560422,0.252027 0.842564,0.374272 0.06763,0.03011 0.135426,0.05833 0.203074,0.08653 0.03566,0.01506 0.07127,0.03011 0.107204,0.04517 0.0073,0.0021 0.01084,0.0037 0.01527,0.0075 v 0 0 l 0.0073,0.0021 v 0 0 0 c 0.0073,0.0037 0.01309,0.0058 0.02037,0.0094 l 0.0073,0.0021 v 0 l 0.0073,0.0021 c 0.131654,0.05645 0.265194,0.110962 0.396845,0.165502 0.142923,0.05833 0.284031,0.116606 0.426954,0.174914 -0.08837,-0.218169 -0.178637,-0.436339 -0.268974,-0.654508 -0.02473,-0.06016 -0.04873,-0.120364 -0.07521,-0.180551 v -0.0021 -0.0058 -0.0037 -0.0021 0 0 -0.0037 -0.0037 0 c -0.0073,-0.01126 -0.0094,-0.02444 -0.01527,-0.03383 -0.01309,-0.03201 -0.02618,-0.06205 -0.03927,-0.09404 -0.06037,-0.141055 -0.122266,-0.282111 -0.18242,-0.423173 -0.122265,-0.282111 -0.248318,-0.562345 -0.378076,-0.840695 -0.221914,-0.475835 -0.449504,-0.955436 -0.729682,-1.4011719 -0.02618,-0.043284 -0.05455,-0.086526 -0.08465,-0.1278956 -0.01084,-0.016948 -0.02254,-0.033819 -0.03563,-0.050771 -0.0072,-0.00939 -0.01527,-0.020658 -0.01892,-0.026331 v -0.00218 c -0.04292,-0.050771 -0.08838,-0.099676 -0.137256,-0.1448157 -0.02618,-0.024438 -0.05455,-0.046988 -0.0828,-0.071498 v 0 c -0.0072,-0.00365 -0.01098,-0.00752 -0.02035,-0.015053 -0.05454,-0.037604 -0.110934,-0.073347 -0.169255,-0.105319 -0.02981,-0.016948 -0.06181,-0.033819 -0.09406,-0.048878 -0.0094,-0.00583 -0.02836,-0.00939 -0.03927,-0.016946 -0.116607,-0.041388 -0.233187,-0.07523 -0.353566,-0.095923 v 0 c -0.01309,-0.00218 -0.02472,-0.00218 -0.03781,-0.00365 -0.03419,-0.00365 -0.06764,-0.00583 -0.103431,-0.00583 -0.06036,-0.00218 -0.120379,0 -0.180529,0.00365 -0.02109,0.00218 -0.04146,0.00365 -0.06181,0.00583 -0.02254,0.00365 -0.04509,0.00756 -0.06763,0.011275 -0.06399,0.013161 -0.125982,0.028221 -0.188022,0.048879 -0.03419,0.011275 -0.06617,0.022546 -0.09784,0.033821 -0.0072,0.00218 -0.0094,0.00365 -0.01084,0.00365 v 0 0 c -0.0072,0.00218 -0.0094,0.00583 -0.01674,0.00756 -0.05673,0.026331 -0.110934,0.054551 -0.163656,0.086509 -0.03419,0.020726 -0.06764,0.041388 -0.101531,0.065827 -0.0072,0.00365 -0.032,0.024436 -0.04145,0.030109 v 0 c -0.0451,0.039493 -0.09026,0.077108 -0.13354,0.1203691 -0.032,0.03193 -0.06399,0.065827 -0.09397,0.1015621 -0.01168,0.013161 -0.01534,0.016945 -0.02843,0.030113 -0.0429,0.050771 0.02123,-0.021023 0.02843,-0.030113 -0.04872,0.035715 -0.12061,0.1674072 -0.150709,0.2200684 -0.01892,0.033895 -0.04501,0.084653 -0.06175,0.1203645 0,0.00366 0,0 0,0 0.0094,-0.013091 0.02618,-0.031883 0,0 -0.02472,0.063934 -0.05819,0.1579907 -0.0749,0.2256979 -0.0094,0.037597 -0.02472,0.1128482 -0.02472,0.1128482 0,0 -0.01865,0.05056 0,0 -0.02905,0.05712 -0.03578,0.257898 -0.03578,0.257898 z m 1.513984,-0.630054 c 0.315961,0 0.573659,0.2576648 0.573659,0.573634 0,0.315969 -0.257698,0.573633 -0.573659,0.573633 -0.315964,0 -0.573592,-0.257664 -0.573592,-0.573633 0,-0.3159692 0.257628,-0.573634 0.573592,-0.573634 z"
       id="path6-7"
       style="fill:#eff0f1;fill-opacity:1;stroke-width:0.0188078"
       sodipodi:nodetypes="sccccccccccsscccccccscccccsccccccccccccccccsccccccccccssccccsscccccccscscscssccccccccccccssssss" />
  </g>
</svg>
