<?xml version="1.0" encoding="UTF-8" standalone="no"?>
<svg
   xmlns:dc="http://purl.org/dc/elements/1.1/"
   xmlns:cc="http://creativecommons.org/ns#"
   xmlns:rdf="http://www.w3.org/1999/02/22-rdf-syntax-ns#"
   xmlns:svg="http://www.w3.org/2000/svg"
   xmlns="http://www.w3.org/2000/svg"
   xmlns:sodipodi="http://sodipodi.sourceforge.net/DTD/sodipodi-0.dtd"
   xmlns:inkscape="http://www.inkscape.org/namespaces/inkscape"
   width="32"
   height="32"
   version="1"
   id="svg12"
   sodipodi:docname="klipper.svg"
   inkscape:version="1.0.2 (e86c870879, 2021-01-15)">
  <metadata
     id="metadata18">
    <rdf:RDF>
      <cc:Work
         rdf:about="">
        <dc:format>image/svg+xml</dc:format>
        <dc:type
           rdf:resource="http://purl.org/dc/dcmitype/StillImage" />
      </cc:Work>
    </rdf:RDF>
  </metadata>
  <defs
     id="defs16" />
  <sodipodi:namedview
     pagecolor="#ffffff"
     bordercolor="#666666"
     borderopacity="1"
     objecttolerance="10"
     gridtolerance="10"
     guidetolerance="10"
     inkscape:pageopacity="0"
     inkscape:pageshadow="2"
     inkscape:window-width="1920"
     inkscape:window-height="1007"
     id="namedview14"
     showgrid="false"
     inkscape:zoom="10.483688"
     inkscape:cx="29.777816"
     inkscape:cy="16.075522"
     inkscape:window-x="0"
     inkscape:window-y="0"
     inkscape:window-maximized="1"
     inkscape:current-layer="svg12"
     inkscape:document-rotation="0"
     inkscape:lockguides="false">
    <inkscape:grid
       type="xygrid"
       id="grid855"
       originx="0"
       originy="0" />
  </sodipodi:namedview>
  <g
     id="klipper">
    <rect
       style="opacity:0.00100002"
       width="32"
       height="32"
       x="0"
       y="0"
       id="rect7" />
    <path
       d="M 20.442,6.421 H 17.17 a 1.204,1.204 0 0 0 -1.128,-0.8 0.4,0.4 0 0 1 -0.4,-0.4 1.2036,1.2036 0 0 0 -1.2,-1.2 h -3.2 a 1.2036,1.2036 0 0 0 -1.2,1.2 0.4,0.4 0 0 1 -0.4,0.4 1.204,1.204 0 0 0 -1.128,0.8 H 5.242 a 1.2036,1.2036 0 0 0 -1.2,1.2 v 19.2 a 1.2036,1.2036 0 0 0 1.2,1.2 h 15.2 a 1.2036,1.2036 0 0 0 1.2,-1.2 v -19.2 a 1.2036,1.2036 0 0 0 -1.2,-1.2 z m -11.2,0.4 a 0.4,0.4 0 0 1 0.4,-0.4 1.2036,1.2036 0 0 0 1.2,-1.2 0.4,0.4 0 0 1 0.4,-0.4 h 3.2 a 0.4,0.4 0 0 1 0.4,0.4 1.2036,1.2036 0 0 0 1.2,1.2 0.4,0.4 0 0 1 0.4,0.4 v 1.6 a 0.4,0.4 0 0 1 -0.4,0.4 h -6.4 a 0.4,0.4 0 0 1 -0.4,-0.4 z m 0.4,2.8 h 6.4 a 1.204,1.204 0 0 0 1.128,-0.8 h 2.072 v 13.6 h -2.8 a 0.4,0.4 0 0 0 -0.4,0.4 v 2.8 h -9.6 v -16.8 h 2.072 a 1.204,1.204 0 0 0 1.128,0.8 z m 9.036,13.6 -1.836,1.836 v -1.836 z m 2.164,3.6 a 0.4,0.4 0 0 1 -0.4,0.4 h -15.2 a 0.4,0.4 0 0 1 -0.4,-0.4 v -19.2 a 0.4,0.4 0 0 1 0.4,-0.4 h 3.2 v 0.8 h -2.4 a 0.4,0.4 0 0 0 -0.4,0.4 v 17.6 a 0.4,0.4 0 0 0 0.4,0.4 h 10.4 a 0.4132,0.4132 0 0 0 0.284,-0.116 l 3.2,-3.2 a 0.4132,0.4132 0 0 0 0.116,-0.284 v -14.4 a 0.4,0.4 0 0 0 -0.4,-0.4 h -2.4 v -0.8 h 3.2 a 0.4,0.4 0 0 1 0.4,0.4 z"
       id="path2"
       style="fill:#eff0f1;fill-opacity:1;stroke-width:0.4" />
    <path
       d="m 11.642,5.621 h 2.4 v 0.8 h -2.4 z"
       id="path4-3"
       style="fill:#eff0f1;fill-opacity:1;stroke-width:0.4" />
    <path
       d="m 27.642,8.821 h -1.2 v -2 a 0.4,0.4 0 0 0 -0.4,-0.4 v -1.2 a 1.2,1.2 0 0 0 -2.4,0 v 1.2 a 0.4,0.4 0 0 0 -0.4,0.4 v 16.4 a 0.2984,0.2984 0 0 0 0.016,0.104 l 1.2,4.4 a 0.3972,0.3972 0 0 0 0.768,0 l 1.2,-4.4 a 0.2984,0.2984 0 0 0 0.016,-0.104 v -13.6 h 0.8 v 5.2 h 0.8 v -5.6 a 0.4,0.4 0 0 0 -0.4,-0.4 z m -3.2,-3.6 a 0.4,0.4 0 0 1 0.8,0 v 1.2 h -0.8 z m 0.4,20.88 -0.676,-2.48 h 1.352 z m 0.8,-3.28 h -1.6 v -13.2 h 1.6 z m 0,-14 h -1.6 v -1.6 h 1.6 z"
       id="path6-6"
       style="fill:#eff0f1;fill-opacity:1;stroke-width:0.4" />
    <path
       d="m 8.065357,12.230815 h 9.602458 c 0.353811,0 0.353811,-0.636 0,-0.636 H 8.065357 c -0.353809,0 -0.353809,0.636 0,0.636 z"
       id="path16"
       style="fill:#33deff;fill-opacity:1;stroke-width:0.236299" />
    <path
       d="m 8.065357,21.5 h 9.602458 c 0.353811,0 0.353811,-0.636 0,-0.636 H 8.065357 c -0.353809,0 -0.353809,0.636 0,0.636 z"
       id="path16-3"
       style="fill:#eff0f1;fill-opacity:1;stroke-width:0.236299" />
    <path
       d="m 8.065357,17 h 9.602458 c 0.353811,0 0.353811,-0.636 0,-0.636 H 8.065357 c -0.35381,0 -0.35381,0.636 0,0.636 z"
       id="path16-6"
       style="fill:#eff0f1;fill-opacity:1;stroke-width:0.236299" />
    <path
       d="m 8.065357,14.591 h 9.602458 c 0.353811,0 0.353811,-0.636 0,-0.636 H 8.065357 c -0.353809,0 -0.353809,0.636 0,0.636 z"
       id="path16-7"
       style="fill:#eff0f1;fill-opacity:1;stroke-width:0.236299" />
    <path
       d="m 8.065357,19.3 h 9.602458 c 0.353811,0 0.353811,-0.636 0,-0.636 H 8.065357 c -0.353809,0 -0.353809,0.636 0,0.636 z"
       id="path16-3-5"
       style="fill:#33deff;fill-opacity:1;stroke-width:0.236299" />
    <path
       d="m 7.994795,23.7 h 7.049038 c 0.259728,0 0.259728,-0.636 0,-0.636 H 7.994795 c -0.259727,0 -0.259727,0.636 0,0.636 z"
       id="path16-3-3"
       style="fill:#eff0f1;fill-opacity:1;stroke-width:0.202459" />
  </g>
  <g
     id="22-22-klipper">
    <rect
       style="opacity:0.00100002"
       width="22"
       height="22"
       x="32"
       y="10"
       id="rect2" />
    <path
       d="M 45.933338,14.6 H 43.752 A 0.80266656,0.80266656 0 0 0 43,14.066666 0.26666662,0.26666662 0 0 1 42.733338,13.8 a 0.8024,0.8024 0 0 0 -0.8,-0.8 H 39.8 A 0.8024,0.8024 0 0 0 39,13.8 0.26666662,0.26666662 0 0 1 38.733338,14.066666 0.80266656,0.80266656 0 0 0 37.981338,14.6 H 35.8 A 0.8024,0.8024 0 0 0 35,15.4 v 12.8 a 0.8024,0.8024 0 0 0 0.8,0.8 h 10.133338 a 0.8024,0.8024 0 0 0 0.8,-0.8 V 15.4 a 0.8024,0.8024 0 0 0 -0.8,-0.8 z m -7.466676,0.266666 A 0.26666662,0.26666662 0 0 1 38.733338,14.6 a 0.8024,0.8024 0 0 0 0.8,-0.8 A 0.26666662,0.26666662 0 0 1 39.8,13.533338 h 2.133338 A 0.26666662,0.26666662 0 0 1 42.2,13.8 a 0.8024,0.8024 0 0 0 0.8,0.8 0.26666662,0.26666662 0 0 1 0.266662,0.266666 v 1.066668 A 0.26666662,0.26666662 0 0 1 43,16.2 h -4.266662 a 0.26666662,0.26666662 0 0 1 -0.266676,-0.266666 z m 0.266676,1.866668 H 43 A 0.80266656,0.80266656 0 0 0 43.752,16.2 h 1.381338 v 9.066666 H 43.266662 A 0.26666662,0.26666662 0 0 0 43,25.533334 V 27.4 H 36.6 V 16.2 h 1.381338 a 0.80266656,0.80266656 0 0 0 0.752,0.533334 z m 6.024,9.066666 -1.224,1.224 V 25.8 Z M 46.2,28.2 a 0.26666662,0.26666662 0 0 1 -0.266662,0.266666 H 35.8 A 0.26666662,0.26666662 0 0 1 35.533338,28.2 V 15.4 A 0.26666662,0.26666662 0 0 1 35.8,15.133334 h 2.133338 v 0.533332 h -1.6 a 0.26666662,0.26666662 0 0 0 -0.266676,0.266668 v 11.73333 a 0.26666662,0.26666662 0 0 0 0.266676,0.266671 h 6.933324 A 0.27546662,0.27546662 0 0 0 43.456,27.856 l 2.133338,-2.133334 a 0.27546662,0.27546662 0 0 0 0.07738,-0.189332 v -9.6 A 0.26666662,0.26666662 0 0 0 45.4,15.666666 h -1.6 v -0.533332 h 2.133338 A 0.26666662,0.26666662 0 0 1 46.2,15.4 Z"
       id="path2-5"
       style="fill:#eff0f1;fill-opacity:1;stroke-width:0.266662" />
    <path
       d="m 40.066662,14.066666 h 1.6 V 14.6 h -1.6 z"
       id="path4-3-6"
       style="fill:#eff0f1;fill-opacity:1;stroke-width:0.266662" />
    <path
       d="m 50.733338,16.2 h -0.8 V 14.866666 A 0.26666662,0.26666662 0 0 0 49.666662,14.6 v -0.8 a 0.8,0.8 0 0 0 -1.6,0 v 0.8 A 0.26666662,0.26666662 0 0 0 47.8,14.866666 V 25.8 a 0.19893338,0.19893338 0 0 0 0.01062,0.06934 l 0.8,2.933333 a 0.2648,0.2648 0 0 0 0.512,0 l 0.8,-2.933333 A 0.19893338,0.19893338 0 0 0 49.933338,25.8 v -9.066666 h 0.533324 V 20.2 H 51 V 16.466666 A 0.26666662,0.26666662 0 0 0 50.733338,16.2 Z M 48.6,13.8 a 0.266669,0.266669 0 0 1 0.533338,0 v 0.8 H 48.6 Z M 48.866662,27.72 48.416,26.066666 h 0.901338 z M 49.4,25.533334 h -1.066662 v -8.8 H 49.4 Z M 49.4,16.2 H 48.333338 V 15.133334 H 49.4 Z"
       id="path6-6-2"
       style="fill:#eff0f1;fill-opacity:1;stroke-width:0.266662" />
    <path
       d="m 37.682237,18.473209 h 6.401645 c 0.235878,0 0.235878,-0.424 0,-0.424 h -6.401645 c -0.235878,0 -0.235878,0.424 0,0.424 z"
       id="path16-9"
       style="fill:#33deff;fill-opacity:1;stroke-width:0.157524" />
    <path
       d="m 37.682237,24.652666 h 6.401645 c 0.235878,0 0.235878,-0.424 0,-0.424 h -6.401645 c -0.235878,0 -0.235878,0.424 0,0.424 z"
       id="path16-3-1"
       style="fill:#eff0f1;fill-opacity:1;stroke-width:0.157524" />
    <path
       d="m 37.682237,21.652666 h 6.401645 c 0.235878,0 0.235878,-0.424 0,-0.424 h -6.401645 c -0.235878,0 -0.235878,0.424 0,0.424 z"
       id="path16-6-2"
       style="fill:#eff0f1;fill-opacity:1;stroke-width:0.157524" />
    <path
       d="m 37.682237,20.046666 h 6.401645 c 0.235878,0 0.235878,-0.424 0,-0.424 h -6.401645 c -0.235878,0 -0.235878,0.424 0,0.424 z"
       id="path16-7-7"
       style="fill:#eff0f1;fill-opacity:1;stroke-width:0.157524" />
    <path
       d="m 37.682237,23.186 h 6.401645 c 0.235878,0 0.235878,-0.424 0,-0.424 h -6.401645 c -0.235878,0 -0.235878,0.424 0,0.424 z"
       id="path16-3-5-0"
       style="fill:#33deff;fill-opacity:1;stroke-width:0.157524" />
    <path
       d="m 37.635195,26.119334 h 4.699358 c 0.173158,0 0.173158,-0.424 0,-0.424 h -4.699358 c -0.173156,0 -0.173156,0.424 0,0.424 z"
       id="path16-3-3-9"
       style="fill:#eff0f1;fill-opacity:1;stroke-width:0.134964" />
  </g>
</svg>
