<?xml version="1.0" encoding="UTF-8" standalone="no"?>
<svg
   xmlns:dc="http://purl.org/dc/elements/1.1/"
   xmlns:cc="http://creativecommons.org/ns#"
   xmlns:rdf="http://www.w3.org/1999/02/22-rdf-syntax-ns#"
   xmlns:svg="http://www.w3.org/2000/svg"
   xmlns="http://www.w3.org/2000/svg"
   xmlns:sodipodi="http://sodipodi.sourceforge.net/DTD/sodipodi-0.dtd"
   xmlns:inkscape="http://www.inkscape.org/namespaces/inkscape"
   id="svg6"
   width="22"
   height="22"
   version="1.1"
   sodipodi:docname="virt.svg"
   inkscape:version="1.0.2 (e86c870879, 2021-01-15)">
  <metadata
     id="metadata11">
    <rdf:RDF>
      <cc:Work
         rdf:about="">
        <dc:format>image/svg+xml</dc:format>
        <dc:type
           rdf:resource="http://purl.org/dc/dcmitype/StillImage" />
      </cc:Work>
    </rdf:RDF>
  </metadata>
  <defs
     id="defs9" />
  <sodipodi:namedview
     pagecolor="#ffffff"
     bordercolor="#666666"
     borderopacity="1"
     objecttolerance="10"
     gridtolerance="10"
     guidetolerance="10"
     inkscape:pageopacity="0"
     inkscape:pageshadow="2"
     inkscape:window-width="1920"
     inkscape:window-height="1007"
     id="namedview7"
     showgrid="false"
     inkscape:zoom="15.170655"
     inkscape:cx="14.132706"
     inkscape:cy="8.1983572"
     inkscape:window-x="0"
     inkscape:window-y="0"
     inkscape:window-maximized="1"
     inkscape:current-layer="svg6"
     inkscape:lockguides="false"
     inkscape:document-rotation="0">
    <inkscape:grid
       type="xygrid"
       id="grid873" />
  </sodipodi:namedview>
  <g
     id="virt-manager">
    <rect
       id="g841"
       style="opacity:0.00100002"
       width="22"
       height="22"
       x="0"
       y="0" />
    <path
       d="M 3.3481738,15.294578 0.30425,7.5219617 C 0.26812424,7.3772617 0.25,7.2144742 0.25,7.0335878 0.28612424,6.4185999 0.6298499,6.07235 1.2835878,6 1.6815242,6.0361244 1.9890117,6.271312 2.2086616,6.7054243 L 4.3817867,12.467699 6.5006487,6.7054243 C 6.7538731,6.2351379 7.0794606,6 7.4799729,6 8.1311364,6.072375 8.4954768,6.4160244 8.5678202,7.0335878 8.5317142,7.2144742 8.4954652,7.3772617 8.4593202,7.5219617 L 5.412811,15.294578 c -0.2532244,0.470286 -0.5968999,0.70542 -1.0335874,0.70542 -0.5064623,0 -0.8501243,-0.235134 -1.0310122,-0.70542 z"
       id="path6"
       style="fill:#00adcf;fill-opacity:1;stroke-width:0.0258398" />
    <path
       d="m 20.634815,15.999998 c -0.3859,0 -0.67638,-0.262618 -0.836244,-0.653888 L 17.902112,9.881244 15.771612,15.4399 C 15.645668,15.813309 15.291416,16 14.932316,16 c -0.3591,0 -0.764423,-0.154305 -0.898744,-0.5601 L 12.027837,9.881244 10.131076,15.346243 C 10.015833,15.807188 9.4220066,16.088434 8.9610722,15.9732 8.5001328,15.857954 8.0711222,15.401532 8.2098192,14.802498 L 11.028258,6.6526158 c 0.0911,-0.3671375 0.41001,-0.629763 0.787866,-0.6511998 0.375189,-0.0215 0.723568,0.2036623 0.854879,0.5574123 l 2.261313,6.1234927 2.331986,-6.1234927 c 0.13131,-0.35375 0.4797,-0.5788623 0.854879,-0.5574123 0.377855,0.02138 0.696776,0.2867368 0.787886,0.6511998 l 2.819003,8.2754402 c 0.04478,0.603207 -0.291565,0.92991 -0.752499,1.045144 -0.075,0.01879 -0.269076,0.02679 -0.338756,0.02679"
       id="path4-3"
       style="fill:#eff0f1;fill-opacity:1;stroke-width:0.026799"
       sodipodi:nodetypes="ccccscccccccccccccsc" />
  </g>
</svg>
